<?xml version="1.0" encoding="UTF-8" standalone="no"?>
<!-- Created with Inkscape (http://www.inkscape.org/) -->

<svg
   width="1280"
   height="720"
   viewBox="0 0 338.66666 190.5"
   version="1.1"
   id="svg5"
   inkscape:version="1.2.1 (9c6d41e410, 2022-07-14)"
   sodipodi:docname="hard_mode_menu_background.svg"
   inkscape:export-filename="hard_mode_menu_background.png"
   inkscape:export-xdpi="96"
   inkscape:export-ydpi="96"
   xmlns:inkscape="http://www.inkscape.org/namespaces/inkscape"
   xmlns:sodipodi="http://sodipodi.sourceforge.net/DTD/sodipodi-0.dtd"
   xmlns="http://www.w3.org/2000/svg"
   xmlns:svg="http://www.w3.org/2000/svg">
  <sodipodi:namedview
     id="namedview7"
     pagecolor="#505050"
     bordercolor="#ffffff"
     borderopacity="1"
     inkscape:showpageshadow="0"
     inkscape:pageopacity="0"
     inkscape:pagecheckerboard="1"
     inkscape:deskcolor="#505050"
     inkscape:document-units="px"
     showgrid="false"
     inkscape:zoom="0.73228114"
     inkscape:cx="466.35094"
     inkscape:cy="256.0492"
     inkscape:window-width="1920"
     inkscape:window-height="1013"
     inkscape:window-x="0"
     inkscape:window-y="0"
     inkscape:window-maximized="1"
     inkscape:current-layer="layer1" />
  <defs
     id="defs2" />
  <g
     inkscape:label="Layer 1"
     inkscape:groupmode="layer"
     id="layer1">
    <rect
       style="fill:#ff0000;stroke:#00ff00;stroke-width:0;stroke-linejoin:round;stroke-dasharray:none;stroke-opacity:0"
       id="rect111"
       width="338.66666"
       height="190.5"
       x="5e-07"
       y="5e-07" />
    <g
       id="g1978"
       transform="matrix(0.8196751,0,0,0.8196751,41.607466,-3.0944849)"
       style="stroke:#00ff00;stroke-opacity:1;stroke-width:2.58232395;stroke-dasharray:none">
      <path
         style="fill:none;stroke:#00ff00;stroke-width:2.58232395;stroke-linecap:butt;stroke-linejoin:miter;stroke-opacity:1;stroke-dasharray:none"
         d="m 69.174748,18.42567 c 1.197483,7.435965 -0.901258,-5.963662 0.703884,6.514572 0.200769,1.560737 0.465466,3.115058 0.803717,4.651872 1.722202,7.824673 0.458076,1.127021 1.910731,6.445802 1.509355,5.526395 -0.772321,-1.828061 0.515715,2.610903 0.02154,0.07424 0.01352,-0.155802 0,-0.231915 -0.726826,-4.090149 0.0567,-0.449723 -0.669298,-2.326312 -0.02937,-0.07591 0,-0.162798 0,-0.244197 0,-0.251722 0.05866,-0.510373 0,-0.755163 -0.161229,-0.672801 -0.36953,-1.339048 -0.653081,-1.970119 -1.254871,-2.792847 -1.847779,-2.929872 -2.437432,-5.45473 -0.05846,-0.250309 0,-0.514088 0,-0.771133 0,-0.255487 0,-0.510975 0,-0.766462 0,-1.42214 0,-2.844279 0,-4.266418 0,-0.543345 0,-1.08669 0,-1.630035 0,-0.255487 0.02453,-0.512155 0,-0.766462 -0.03375,-0.349941 -0.501012,-0.910533 -0.174236,-1.040203 0.754414,-0.29936 1.619745,0.180468 2.4306,0.14485 1.411134,-0.06199 5.184516,-0.589438 6.847959,-0.778992 0.08462,-0.0096 0.170326,0 0.255487,0 0.07741,0 0.163259,-0.03515 0.232222,0 0.156999,0.08003 1.700387,1.09694 1.786565,1.217737 0.119954,0.168142 0,0.413088 0,0.619632 0,0.337329 0,0.674657 0,1.011986 0,1.107112 0,2.214225 0,3.321337 0,1.064089 0.09523,1.709232 -0.510974,2.776891 -0.313497,0.552136 -0.873951,0.92219 -1.284214,1.406772 -0.32441,0.383177 -0.552241,0.85013 -0.91786,1.194204 -0.365218,0.343694 -0.850152,0.535239 -1.246455,0.842569 -0.453554,0.351729 -0.818026,0.816805 -1.298387,1.130935 -0.526968,0.344606 -1.184598,0.463274 -1.697633,0.828299 -3.369678,2.397516 -0.350742,0.5163 -2.146358,2.490216 -0.306605,0.33705 -0.753478,0.519726 -1.081479,0.835993 -0.144098,0.138941 -0.140007,0.414634 -0.315468,0.510977 -2.512756,1.379701 0.260173,-1.045012 -1.880463,1.031578"
         id="path1914" />
      <path
         style="fill:none;stroke:#00ff00;stroke-width:2.58232395;stroke-linecap:butt;stroke-linejoin:miter;stroke-opacity:1;stroke-dasharray:none"
         d="m 94.334059,30.929548 c -5.364536,11.671466 -4.183801,-3.249179 -6.660311,-3.295007 -0.176808,-0.0033 -0.326787,0.140039 -0.474509,0.237249 -0.406501,0.26751 -0.861724,0.489463 -1.183937,0.854131 -1.656934,1.875258 -1.348459,4.581162 -1.348459,6.88731 0,2.467332 -0.191913,0.464468 0.255487,1.798368 0.02658,0.07925 -0.05682,0.189449 0,0.250748 0.310811,0.335304 1.843267,1.270725 2.060413,1.364043 0.375576,0.161407 0.810004,0.141029 1.193123,0.283605 0.112877,0.042 0.147571,0.202017 0.255487,0.255487 0.0777,0.0385 0.173434,0 0.260152,0 0.08136,0 0.168867,0.03101 0.244088,0 0.928627,-0.382858 1.828274,-0.832768 2.749093,-1.234041 1.975545,-0.860893 3.942701,-1.742609 5.939758,-2.552348 0.314401,-0.127479 0.681132,-0.105018 0.985202,-0.255487 0.06932,-0.0343 0,-0.154691 0,-0.232034 0,-0.243708 0.07061,-0.497867 0,-0.731121 -0.422299,-1.395108 -1.594686,-1.99812 -2.654869,-2.821551 -0.599448,-0.465582 -0.280733,-0.809352 -1.620718,-0.809352 -0.594887,0 -1.11587,0.485513 -1.710256,0.509945 -0.867857,0.03568 -1.72071,-0.240845 -2.584355,-0.333402 -0.174545,-0.01871 -0.351091,0 -0.52664,0"
         id="path1916" />
      <path
         style="fill:none;stroke:#00ff00;stroke-width:2.58232395;stroke-linecap:butt;stroke-linejoin:miter;stroke-opacity:1;stroke-dasharray:none"
         d="m 120.96556,15.811048 c 4.60382,4.896968 -0.40184,-0.346722 3.08691,3.124155 0.0979,0.09737 0.18333,0.208307 0.25549,0.32601 0.0941,0.153452 0.10755,0.362295 0.24075,0.483358 1.31205,1.192453 1.18336,0.410759 1.81135,1.758075 0.0741,0.158886 -0.0733,1.244558 0,1.409025 0.0309,0.06932 0.16657,0.04501 0.22767,0 0.045,-0.03316 -0.0474,-0.138169 0,-0.167726 0.34506,-0.214907 0.75846,-0.304294 1.10335,-0.519465 0.44041,-0.274768 0.80419,-0.660039 1.23978,-0.942384 0.49831,-0.322995 1.10476,-0.482075 1.55507,-0.869193 0.28451,-0.244586 0.35575,-0.663668 0.57887,-0.965306 0.14555,-0.19677 0.38318,-0.315716 0.51919,-0.519193 1.46654,-2.193967 -0.38055,0.0554 1.02195,-1.854 0.47077,-0.640913 1.21642,-1.170297 1.4119,-1.989446 0.0399,-0.167069 0,-0.343519 0,-0.515279 0,-0.07824 0.0368,-0.165675 0,-0.234717 -0.0196,-0.03681 -0.096,-0.02985 -0.12512,0 -0.85305,0.874234 -0.0373,0.361358 -1.03034,1.120581 -1.7567,1.343126 0.29699,-0.632926 -1.6224,1.716369 -0.54799,0.67072 -1.2539,1.215851 -1.72705,1.941301 -0.46473,0.712532 -0.62486,1.589843 -1.05479,2.323893 -0.34612,0.590945 -0.88627,1.049209 -1.25781,1.624514 -0.23231,0.359731 -0.34898,0.782536 -0.54316,1.164204 -0.0911,0.179094 -0.24087,0.327941 -0.31167,0.515996 -0.0366,0.0973 0.0417,0.216649 0,0.311898 -0.0469,0.107153 -0.19292,0.146007 -0.24594,0.250256 -0.0353,0.0693 -0.0102,0.15618 0,0.233266 0.1075,0.813826 0.29996,1.618095 0.35276,2.43729 0.0651,1.009838 0,2.023867 0,3.0358 0,1.266807 0.0778,2.536005 0,3.800417 -0.0637,1.03509 -0.33109,2.049259 -0.42368,3.082168 -0.0763,0.851181 0,1.778651 0,2.648657"
         id="path1920" />
      <path
         style="fill:none;stroke:#00ff00;stroke-width:2.58232395;stroke-linecap:butt;stroke-linejoin:miter;stroke-opacity:1;stroke-dasharray:none"
         d="m 140.54976,29.581096 c -4.1278,-1.846696 -2.5711,-1.811919 -4.30556,-1.811919 -0.081,0 -0.16531,-0.02315 -0.2429,0 -0.45056,0.134379 -1.48023,0.567497 -1.77789,0.893786 -0.26938,0.295304 -0.32518,0.734264 -0.54471,1.0683 -0.26299,0.400153 -0.71109,0.681305 -0.89557,1.123178 -0.13124,0.314354 0,0.681299 0,1.02195 0,0.513461 -0.0649,1.031047 0,1.540386 0.0556,0.436409 0.15863,0.865992 0.26354,1.293241 0.93409,3.804361 -0.12542,-0.491676 0.58512,1.615043 0.10566,0.313282 -0.20321,0.283615 0.24697,0.507021 0.0749,0.03715 0.16715,0 0.25072,0 0.16873,0 0.33878,-0.02101 0.5062,0 0.625,0.07846 1.598,0.361005 2.32682,0.260228 1.54596,-0.213765 2.62342,-0.615294 4.22047,-1.094663 0.36578,-0.109794 0.92712,-0.02125 0.80326,-0.468178 -0.37847,-1.365715 -1.11642,-2.647966 -1.98946,-3.749556 -0.30125,-0.380119 -0.65687,-0.720486 -1.04102,-1.016587 -0.0734,-0.05654 -0.18523,0 -0.27785,0 -0.10312,-0.196114 -0.20624,-0.392229 -0.30936,-0.588343"
         id="path1922" />
      <path
         style="fill:none;stroke:#00ff00;stroke-width:2.58232395;stroke-linecap:butt;stroke-linejoin:miter;stroke-opacity:1;stroke-dasharray:none"
         d="m 146.10308,30.213141 c -0.15265,0.883245 -0.34702,1.760286 -0.45795,2.649733 -0.0422,0.338029 0,0.6813 0,1.021948 0,0.340651 -0.0393,0.68358 0,1.02195 0.17178,1.477772 0.4632,2.581887 0.96091,3.985771 0.012,0.03397 0.43707,1.55004 0.89767,1.790666 0.069,0.03605 0.15571,0 0.23357,0 0.15704,0 0.31408,0 0.47113,0 1.04264,0 0.52007,0.0814 1.54056,-0.260197 0.24111,-0.633553 0.68884,-0.144449 1.02195,-0.255487 1.24684,-0.415615 3.04408,-2.213266 3.45649,-3.39657 0.25974,-0.745252 -0.18456,-1.454549 -0.3543,-2.129369 -0.73977,-2.94096 0.0574,0.06855 -0.26346,-2.448986 -0.04,-0.31396 -0.20793,-0.601573 -0.25549,-0.914477 -0.0559,-0.368022 0,-0.870384 0,-1.266912 0,-0.04703 -0.008,0.09478 0,0.141076 0.10806,0.605586 0.1792,1.220856 0.34854,1.812239 0.17599,0.614627 0.50304,1.178732 0.68353,1.792055 0.1585,0.538554 0.20892,1.103352 0.3299,1.651553 0.0769,0.348393 0.17832,0.690928 0.26355,1.037373 0.1115,0.453189 0.1385,0.934365 0.32662,1.36148 0.22006,0.499676 0.62498,0.898607 0.88115,1.380775 0.36521,0.687422 0.6502,1.414561 0.97883,2.120202 0.18158,0.38989 0.33851,0.792871 0.5518,1.166363 0.32089,0.561911 0.26017,-0.03886 0.26017,0.510796"
         id="path1924" />
      <path
         style="fill:none;stroke:#00ff00;stroke-width:2.58232395;stroke-linecap:butt;stroke-linejoin:miter;stroke-opacity:1;stroke-dasharray:none"
         d="m 186.0398,17.61539 c 0.16182,2.723078 0.26439,5.450326 0.48546,8.169237 0.0912,1.121204 0.68626,3.264109 0.97579,4.219199 0.3619,1.193798 0.7794,2.370053 1.15968,3.558122 0.28979,0.905365 0.54059,1.823387 0.85051,2.722063 0.18353,0.532188 0.44563,1.035103 0.62877,1.567426 0.0568,0.164975 -0.15275,0.547513 0.3035,0.510873 0.0914,-0.0073 -0.0224,-0.186179 0,-0.275098 0.0637,-0.252555 0.20659,-0.482597 0.25549,-0.738423 0.14778,-0.77317 0.18547,-1.564661 0.33253,-2.337967 0.19929,-1.047906 0.59266,-2.060601 0.70567,-3.121286 0.12367,-1.160757 -0.0992,-2.338877 0,-3.501983 0.29339,-3.439628 1.18807,-6.818016 1.45541,-10.262904 0.0453,-0.584421 0,-1.172356 0,-1.758535 0,-0.34065 -0.0539,-0.685596 0,-1.02195 0.033,-0.206012 0.19742,-0.371013 0.25548,-0.571416 0.047,-0.162092 0,-0.618946 0,-0.80816 0,-0.07459 0.0159,0.150886 0,0.223778 -0.0698,0.32104 -0.23536,0.623994 -0.25548,0.95191 -0.0656,1.068026 0,2.140072 0,3.210108 0,1.14664 -0.0626,2.294989 0,3.43992 0.0494,0.903796 0.25935,1.792699 0.33535,2.694649 0.036,0.426885 -0.0434,0.858999 0,1.285195 0.0546,0.536691 0.21658,1.057633 0.29288,1.591674 0.13942,0.975693 0.21041,1.960454 0.354,2.935541 0.22806,1.548725 0.52005,3.087439 0.76069,4.634259 0.0131,0.08415 -0.0572,0.19241 0,0.255487 0.0519,0.05722 0.1545,0 0.23175,0 0.0732,0 0.14641,0 0.21961,0 0.17033,0 0.35697,0.07275 0.51098,0 0.0727,-0.03437 -0.0553,-0.182954 0,-0.24139 0.12043,-0.127241 0.30889,-0.16542 0.46333,-0.248129 0.30054,-0.431744 0.601,-0.863552 0.90163,-1.295236 0.2903,-0.416843 0.63895,-0.798557 0.87114,-1.250344 0.26803,-0.521504 0.38235,-1.110001 0.61792,-1.646946 0.16659,-0.379704 0.50367,-0.690851 0.58603,-1.09723 0.20297,-1.001527 0.15038,-2.038533 0.25549,-3.055003 0.4105,-3.970144 0.23993,-2.103964 1.0641,-6.063727 0.48055,-2.308881 -0.0581,-1.014296 0.87256,-2.778387"
         id="path1926" />
      <path
         style="fill:none;stroke:#00ff00;stroke-width:2.58232395;stroke-linecap:butt;stroke-linejoin:miter;stroke-opacity:1;stroke-dasharray:none"
         d="m 208.11438,29.842494 c -1.18768,-0.573328 -2.28767,-1.384276 -3.56304,-1.719987 -0.37066,-0.09757 -0.67711,0.361558 -1.03006,0.510976 -0.25209,0.106717 -0.54243,0.120327 -0.78049,0.255487 -1.17333,0.666194 -1.27748,2.31629 -1.13806,3.475519 0.0841,0.698863 0.39446,1.536682 0.68338,2.1976 0.0474,0.10853 0.27835,0.683067 0.5005,0.755983 0.15881,0.05213 0.3343,0 0.50145,0 0.17032,0 0.34065,0 0.51097,0 0.17033,0 0.34065,0 0.51098,0 0.17032,0 0.36063,0.08005 0.51097,0 0.2395,-0.127526 0.3685,-0.399936 0.57365,-0.577529 2.29831,-1.989654 -1.20335,1.486868 2.17279,-2.331509 0.87931,-0.994489 1.23043,-0.941543 1.71118,-2.020636 0.0768,-0.172344 0,-0.377351 0,-0.566028 0,-0.411329 0,-0.822661 0,-1.233993 0,-0.06681 0,0.133617 0,0.200427 0,0.240485 -0.0322,0.483135 0,0.721458 0.0793,0.586841 0.16533,1.177092 0.33308,1.744999 0.16356,0.55369 0.4485,1.06423 0.65592,1.603028 0.0976,0.253624 0.14855,0.524745 0.25883,0.773136 0.0809,0.182282 0.25578,0.319408 0.31126,0.510974 0.0523,0.180507 -0.0435,0.380947 0,0.563777 0.0726,0.305311 0.67466,1.140592 0.77147,1.286505 0.55545,0.837139 0.20193,0.772223 0.74449,0.772223"
         id="path1928" />
      <path
         style="fill:none;stroke:#00ff00;stroke-width:2.58232395;stroke-linecap:butt;stroke-linejoin:miter;stroke-opacity:1;stroke-dasharray:none"
         d="m 214.77901,30.10567 c 0.009,1.068012 0.0205,2.136005 0.0274,3.204032 0.0104,1.603484 -0.0813,0.726319 0.3342,2.801747 0.11081,0.553466 0.20093,1.112613 0.35369,1.655998 0.29357,1.044319 0.25548,0.116094 0.25548,0.766464 0,0.07625 -0.028,-0.157835 0,-0.228762 0.24299,-0.615479 0.19316,0.07029 0.19316,-0.511479 0,-0.708012 -0.0508,0.448374 0.25223,-0.472577 0.0532,-0.16179 -0.0302,-0.343347 0,-0.510974 0.39162,-2.173693 0.15674,-0.550095 0.91783,-2.445687 0.33421,-0.832387 0.3632,-1.784204 0.95722,-2.50776 0.10386,-0.08516 0.20772,-0.170323 0.31158,-0.255487 0.0847,0 0.18597,0.05029 0.25413,0 0.0503,-0.03711 -0.0569,-0.161669 0,-0.187508 0.12536,-0.05691 0.27536,0 0.41303,0 0.76147,0 0.84551,0.009 1.72325,0.260408 0.26119,0.07482 0.54518,0.10903 0.77402,0.255487 0.0674,0.0431 -0.0437,0.17294 0,0.239872 0.0286,0.04374 0.12251,-0.03946 0.15677,0 0.19607,0.225829 0.29574,0.524994 0.49369,0.749175 0.27326,0.309454 0.64611,0.522666 0.90983,0.840285 0.0544,0.06552 0,0.170326 0,0.255487 0,0.0617 0,0.123404 0,0.185105 0,0.332177 0.0477,0.66779 0,0.996532 -0.0386,0.266523 -0.20267,0.502386 -0.25548,0.766464 -0.051,0.254793 0,0.645035 0,0.923787"
         id="path1930" />
      <path
         style="fill:none;stroke:#00ff00;stroke-width:2.58232395;stroke-linecap:butt;stroke-linejoin:miter;stroke-opacity:1;stroke-dasharray:none"
         d="m 236.70602,31.385883 c -3.97955,0.278183 -7.94815,0.255487 -11.92712,0.255487"
         id="path1932" />
      <path
         style="fill:none;stroke:#00ff00;stroke-width:2.58232395;stroke-linecap:butt;stroke-linejoin:miter;stroke-opacity:1;stroke-dasharray:none"
         d="m 230.31353,20.799447 c 0.81455,30.926361 -0.2896,0.270279 0.7047,14.518057 0.19853,2.844826 -0.30711,1.653561 0.31256,4.52964 0.27217,1.263229 0.61388,2.511896 0.99129,3.74777 0.18324,0.600054 0.96299,2.024007 0.96299,2.844747"
         id="path1934" />
    </g>
    <g
       id="g2215">
      <path
         style="fill:none;stroke:#00ff00;stroke-width:2.11667;stroke-linecap:butt;stroke-linejoin:miter;stroke-dasharray:none;stroke-opacity:1"
         d="m 104.77467,40.528298 c -0.31058,5.134592 -0.62116,10.269185 -0.93174,15.403776 -0.21392,1.555421 -0.50497,3.10217 -0.64176,4.66626 -0.0776,0.887165 0,1.781102 0,2.671654 0,0.489604 0,0.979209 0,1.468813"
         id="path1938" />
      <path
         style="fill:none;stroke:#00ff00;stroke-width:2.11667;stroke-linecap:butt;stroke-linejoin:miter;stroke-dasharray:none;stroke-opacity:1"
         d="m 110.47641,61.34089 c 0.98707,-4.502036 1.88276,-9.02508 2.96119,-13.506107 0.33109,-1.375755 0.71543,-2.257678 1.50776,-3.306581 0.12081,-0.159922 0.31191,-0.260877 0.42181,-0.428478 0.0393,-0.05987 -0.0481,-0.161805 0,-0.214792 0.0438,-0.04815 0.13176,0.01446 0.1952,0 0.21822,-0.04977 0.43423,-0.112262 0.64363,-0.191312 0.14707,-0.05551 0.26473,-0.204649 0.42181,-0.210905 0.0646,-0.0026 0,0.129404 0,0.194106 0,1.359724 -0.1392,2.72659 0,4.079167 0.26916,2.615391 1.35818,8.334147 2.1193,11.248965 0.23771,0.910321 0.66557,1.766502 0.87238,2.684333 0.087,0.386066 -0.0386,0.793383 0,1.187238 0.032,0.327006 0.1728,0.636539 0.21091,0.962896 0.0326,0.279308 -0.0468,0.566336 0,0.843618 0.24332,1.441049 0.21475,-0.112988 0.21475,0.619428"
         id="path1942" />
      <g
         id="g2199">
        <path
           style="fill:none;stroke:#00ff00;stroke-width:2.11667;stroke-linecap:butt;stroke-linejoin:miter;stroke-dasharray:none;stroke-opacity:1"
           d="M 91.118527,45.36582 C 90.777415,63.327019 88.370461,57.735451 90.991599,63.628219"
           id="path1936" />
        <path
           style="fill:none;stroke:#00ff00;stroke-width:2.11667;stroke-linecap:butt;stroke-linejoin:miter;stroke-dasharray:none;stroke-opacity:1"
           d="m 103.2087,54.641482 c -5.874272,1.043145 -10.891739,1.137024 -16.384735,1.137024"
           id="path1940" />
        <path
           style="fill:none;stroke:#00ff00;stroke-width:2.11667;stroke-linecap:butt;stroke-linejoin:miter;stroke-dasharray:none;stroke-opacity:1"
           d="m 117.35829,56.842566 c -3.09101,-0.545229 -6.18358,-0.445572 -9.29472,-0.445572"
           id="path1944" />
        <path
           style="fill:none;stroke:#00ff00;stroke-width:2.11667;stroke-linecap:butt;stroke-linejoin:miter;stroke-dasharray:none;stroke-opacity:1"
           d="m 125.28998,44.996816 c 0.31482,3.809503 0.4406,7.639375 0.94448,11.428511 0.13343,1.003319 0.63196,1.923172 0.95842,2.881232 0.41208,1.209351 0.79903,2.428191 1.25716,3.620864 4.06833,10.59135 0.19024,-0.442828 1.62372,4.359338 0.24132,0.808394 0.21091,0.132924 0.21091,0.636499 0,0.04458 0.0149,-0.09172 0,-0.133734 -0.0493,-0.13902 -0.11684,-0.271453 -0.18912,-0.400015 -0.49783,-0.885473 -0.44531,-0.508686 -0.69691,-1.584062 -0.33753,-1.442614 -0.2063,-1.378189 -0.5136,-2.775664 -0.0806,-0.366331 -0.19953,-0.723214 -0.2911,-1.086948 -0.0779,-0.309579 -0.12374,-0.627521 -0.21736,-0.932722 -0.0669,-0.218336 -0.20986,-0.410564 -0.26283,-0.632712 -0.0363,-0.152207 0.0188,-0.314082 0,-0.469424 -0.0517,-0.427205 -0.17921,-0.844464 -0.21091,-1.273614 -0.0389,-0.525764 0.0791,-1.060358 0,-1.58159 -0.29076,-1.916371 -0.63785,-1.940016 -1.11941,-3.657167 -0.0383,-0.136648 0,-0.283838 0,-0.425759 0,-0.203794 0,-0.407588 0,-0.611383 0,-0.511622 0,-1.023241 0,-1.534863 0,-0.500456 -0.0411,-1.002607 0,-1.501368 0.0295,-0.357254 0.028,-0.746256 0.2109,-1.054523 0.18287,-0.308115 0.58494,-0.423232 0.82435,-0.689803 0.51018,-0.56807 0.86766,-1.672727 1.8279,-1.672727 0.0628,0 0.14422,-0.04465 0.18835,0 0.0903,0.09137 -0.0562,0.26988 0,0.385405 0.32599,0.670107 0.66997,1.332894 1.05391,1.971565 0.66094,1.099429 1.43701,2.127956 2.07841,3.238896 0.84867,1.469937 1.71738,2.938085 2.38806,4.497294 0.13889,0.322902 0.10751,0.719861 0,1.054523 -0.30265,0.942039 -0.80384,1.671614 -1.53235,2.288359 -0.19781,0.167452 -0.40493,0.337618 -0.64609,0.432505 -0.49317,0.194043 -1.02221,0.280355 -1.53219,0.424551 -2.93416,0.829642 -0.45097,0.244178 -3.68323,0.730943 -1.54091,0.232058 -0.5892,0.214781 -1.3014,0.214781 -0.0548,0 0.10959,0 0.16438,0 0.48453,0 0.97137,-0.04709 1.45361,0 1.0682,0.104306 2.02438,0.316415 3.01255,0.770463 0.0192,0.0088 1.22248,0.60154 1.52963,1.012969 1.09629,1.468454 -0.4484,0.130248 2.56769,2.129641 6.38809,4.23472 3.871,2.320621 9.23317,6.295011 0.16924,0.125443 1.67419,0.998696 1.71223,1.599345 0.004,0.06109 -0.12696,0.02295 -0.18376,0 -0.34259,-0.138189 -0.46381,-0.261006 -0.72376,-0.472325"
           id="path1946" />
        <path
           style="fill:none;stroke:#00ff00;stroke-width:2.11667;stroke-linecap:butt;stroke-linejoin:miter;stroke-dasharray:none;stroke-opacity:1"
           d="m 148.46189,49.056649 c -0.6307,6.788328 -0.75009,3.5051 -0.24021,7.553785 0.0847,0.672784 0.19081,1.344225 0.23115,2.021124 0.1735,2.911445 -0.37972,1.169859 0.47559,4.841507 1.05258,4.518506 0.41366,-0.284538 0.89061,3.438976 0.005,0.03677 0.0228,0.66576 0,0.671884 -0.13107,0.03519 -0.27994,-0.04737 -0.40712,0 -0.11515,0.04289 -0.14932,0.224734 -0.26915,0.251879 -0.0621,0.01407 0.009,-0.127858 0,-0.190913 -0.0643,-0.472991 -0.10846,-0.950759 -0.21835,-1.415277 -0.1472,-0.622235 -0.39495,-1.21731 -0.55111,-1.837356 -0.19098,-0.758252 -0.57965,-3.228042 -0.60615,-3.759862 -0.0686,-1.37643 0,-2.756279 0,-4.134416 0,-0.959657 0,-1.919311 0,-2.878968 0,-0.773315 0,-1.54663 0,-2.319947 0,-0.284043 0,-0.568084 0,-0.852126 0,-0.140603 -0.0628,-0.296037 0,-0.42181 0.65932,-1.319423 0.85861,-1.012572 2.33483,-1.523702 1.23588,-0.427912 2.79017,-1.154555 4.18006,-1.154555 0.80841,0 1.86537,0.364942 2.29239,1.13029 0.10473,0.187715 -0.0249,0.431361 0,0.644866 0.0657,0.562997 0.17924,1.119386 0.27128,1.678688 0.0959,0.582819 0.2458,1.158853 0.29256,1.747657 0.10307,1.297903 0.003,2.427758 -0.26889,3.692823 -0.4157,1.93389 -0.99325,3.253 -2.25836,4.774493 -1.05086,1.26382 -0.35719,0.454998 -1.41651,0.984302 -0.0898,0.04485 -0.13724,0.146645 -0.21091,0.214766 -0.23086,0.213492 -0.44608,0.448744 -0.70617,0.625454 -0.29742,0.202064 -0.61167,0.381737 -0.93808,0.532538 -0.80358,0.81467 -1.94813,0.622281 -2.89331,1.009597 -0.0531,0.02175 0.053,0.150104 0,0.172055 -1.74275,0.530298 -1.06066,0.266979 -2.08183,0.690858"
           id="path1948" />
        <path
           style="fill:none;stroke:#00ff00;stroke-width:2.11667;stroke-linecap:butt;stroke-linejoin:miter;stroke-dasharray:none;stroke-opacity:1"
           d="m 169.91634,63.215536 c 1.26307,-2.871233 2.62303,-5.701765 3.7892,-8.613703 0.19856,-0.495804 0.1572,-1.058582 0.29138,-1.575539 0.11413,-0.439696 0.35267,-0.842471 0.45135,-1.285893 0.12544,-0.563764 0.14127,-1.146453 0.21731,-1.718979 0.0881,-0.663678 0.21737,-1.322571 0.27521,-1.989574 0.0341,-0.393123 0,-0.7892 0,-1.183801 0,-0.09462 -0.0703,-0.394292 0.20827,-0.210904 0.0381,0.02513 0,0.0914 0,0.137105 0,0.467898 -0.0543,0.93896 0,1.403692 0.0369,0.315746 0.20002,0.604501 0.27104,0.914365 0.0899,0.392128 0.10606,0.799926 0.21091,1.188319 3.06176,11.341884 -1.01381,-5.031779 1.53633,6.279556 1.78256,7.906685 -0.004,-0.607599 0.92198,3.230503 0.0495,0.205026 -0.0487,0.427513 0,0.632713 0.0395,0.166073 0.17319,0.300148 0.21091,0.466618 0.0342,0.150917 0,0.309482 0,0.464224 0,0.06795 -0.048,0.155822 0,0.203877 0.048,0.04805 0.17249,-0.06028 0.20387,0 0.0603,0.115781 -0.0263,0.263745 0,0.391596 0.0448,0.217746 0.16763,0.414654 0.21091,0.632713 0.0279,0.140578 -0.0584,0.299091 0,0.429958 0.12621,0.282678 0.24916,-0.169793 0.35546,-0.256719 1.35103,-1.104785 0.91874,-0.222997 1.74874,-2.022011 0.77541,-1.680675 0.45583,-1.330271 0.77214,-3.272185 0.1751,-1.075047 0.3386,-2.154188 0.59108,-3.213731 0.25406,-1.066146 0.62753,-2.100327 0.92649,-3.154762 0.22032,-0.777048 0.40426,-1.564237 0.63126,-2.339361 0.22835,-0.779708 0.45058,-1.562834 0.73448,-2.32408 0.0348,-0.09315 0.1406,-0.140603 0.21089,-0.210904 0.0654,-0.06535 0.10367,-0.193476 0.19605,-0.196049 0.0635,-0.0017 0,0.127061 0,0.190591 0,0.463521 -0.0394,0.928719 0,1.390562 0.0469,0.549972 0.14408,1.095616 0.25823,1.635653 0.13508,0.638997 0.30152,1.271705 0.48863,1.897445 0.25725,0.860309 0.66229,1.678876 0.84376,2.558298 0.19858,0.962345 0.16711,1.958643 0.2895,2.93361 0.20781,1.655274 0.4528,3.305766 0.70092,4.955481 0.0559,0.371523 0.15957,0.735019 0.2109,1.107196 0.0192,0.139285 -0.0421,0.287664 0,0.421808 0.0326,0.103979 0.1406,0.166556 0.2109,0.249832"
           id="path1950" />
        <path
           style="fill:none;stroke:#00ff00;stroke-width:2.11667;stroke-linecap:butt;stroke-linejoin:miter;stroke-dasharray:none;stroke-opacity:1"
           d="m 198.687,50.427127 c -1.60933,-0.312872 -3.21866,-0.625744 -4.82799,-0.938617 -0.0641,0 -0.13661,-0.03172 -0.1923,0 -0.0778,0.0443 -0.0978,0.155633 -0.17114,0.206979 -0.12973,0.09083 -0.30892,0.103949 -0.4257,0.210904 -0.68604,0.628309 -1.20455,1.051028 -1.19705,2.004749 0.0106,1.345628 0.66965,2.785802 0.98737,4.018178 0.54234,2.103701 0.07,1.154872 0.50897,3.456302 0.047,0.246392 0.19928,0.461322 0.27494,0.700475 0.0546,0.172544 0.19169,1.033109 0.42568,1.269314 0.0485,0.04901 0.13798,0 0.20697,0 0.0467,0 0.0934,0 0.14015,0 1.46416,0 0.2565,0.101232 1.35588,-0.210907 0.0676,-0.0192 0.1406,0 0.2109,0 0.5438,0 0.44661,0.02663 1.28765,-0.501784 0.34129,-0.214438 0.60058,-0.540806 0.93102,-0.771636 0.14213,-0.09929 0.34362,-0.09832 0.47549,-0.210904 0.0494,-0.04222 0,-0.130055 0,-0.195084 0,-0.405309 -0.04,-0.812605 0,-1.215931 0.0529,-0.532777 0.19262,-1.053411 0.27789,-1.581976 0.24148,-1.496887 0.2109,-1.030298 0.2109,-2.084379 0,-0.281207 0.0687,-0.570919 0,-0.843618 -0.31638,-1.256888 -0.43076,-0.438307 -0.85144,-1.484145 -0.0525,-0.130445 0.0476,-0.289532 0,-0.421808 -0.17139,-0.475603 -0.35705,-0.670168 -0.63271,-1.004372"
           id="path1952" />
        <path
           style="fill:none;stroke:#00ff00;stroke-width:2.11667;stroke-linecap:butt;stroke-linejoin:miter;stroke-dasharray:none;stroke-opacity:1"
           d="m 205.20332,48.976154 c 0,2.550571 -0.0754,5.102253 0,7.651709 0.0221,0.749292 0.2372,1.48221 0.29195,2.229829 0.0428,0.583992 0,1.171113 0,1.756669 v 1.180132 l 0.8019,1.223305 -0.54997,0.442505 -0.25573,-0.114282 0.004,-1.471356 v -5.159188 c 0,-0.576227 -0.0932,-1.160041 0,-1.728674 0.0793,-0.483693 0.36997,-0.909489 0.5095,-1.379361 0.12024,-0.404929 0.16617,-0.828598 0.26788,-1.238575 0.058,-0.233852 0.17418,-0.453246 0.2109,-0.691373 0.0343,-0.222787 0,-0.450841 0,-0.676261 0,-0.140603 -0.0445,-0.288421 0,-0.42181 0.0314,-0.09432 0.16592,-0.122242 0.2109,-0.210904 0.0309,-0.06088 -0.0633,-0.179354 0,-0.204789 0.15777,-0.06335 0.34687,0.04773 0.51005,0 0.0954,-0.02792 0.13747,-0.143869 0.21089,-0.210906 0.0785,-0.07166 0.15297,-0.150617 0.24441,-0.204801 0.54023,-0.32013 1.11585,-0.387804 1.75659,-0.429084 0.67615,-0.04356 1.3551,0 2.03266,0 h 0.87436 c 0.1406,0 0.28764,-0.04207 0.4218,0 0.0867,0.02718 0.15071,0.112116 0.19265,0.192678 0.20005,0.384307 0.37526,0.782368 0.52629,1.188448 0.42273,1.136639 0.64914,1.987618 0.75861,3.203008 0.0396,0.439604 0,0.882768 0,1.324152 v 1.494352 c 0,0.402801 0.0458,0.808217 0,1.2084 -0.0584,0.510151 -0.49435,1.175914 -0.84362,1.476332 -0.54613,0.469728 -1.18586,0.818142 -1.77735,1.229292 -0.32974,0.229214 -0.64034,0.487952 -0.98634,0.691786 -0.43437,0.255884 -1.84905,0.878673 -2.29627,0.987007 -4.7436,1.149081 1.03451,-0.56469 -2.85289,0.431924 -0.15531,0.03981 -0.2882,0.140604 -0.43229,0.210906"
           id="path1954"
           sodipodi:nodetypes="ccsscccccsssscscssssssssssssssssssssc" />
        <path
           style="fill:none;stroke:#00ff00;stroke-width:2.11667;stroke-linecap:butt;stroke-linejoin:miter;stroke-dasharray:none;stroke-opacity:1"
           d="m 225.24952,49.704049 c -0.41173,-0.06459 -0.82347,-0.129181 -1.23518,-0.193772 -1.21044,-0.131365 -2.426,-0.22188 -3.63129,-0.394093 -5.30221,-0.757594 -2.68337,-0.728034 -4.7441,-0.728034 -0.0627,0 0.1544,-0.05286 0.18816,0 0.11832,0.185142 0.15774,0.411311 0.2109,0.624499 0.0889,0.356227 0.10923,0.728582 0.21429,1.080371 0.14723,0.493026 0.43601,0.942134 0.54016,1.446028 0.14178,0.686102 -0.18972,2.624243 -0.21366,3.075259 -0.0374,0.704572 -0.0604,1.41372 0,2.116691 0.0314,0.365457 0.18234,0.710585 0.27352,1.065877 0.0714,0.493749 0.17864,0.983632 0.21426,1.481247 0.036,0.502804 0,1.008181 0,1.512272 0,0.281206 0.0565,0.568134 0,0.843618 -0.0331,0.161682 -0.20019,0.2677 -0.25927,0.421807 -0.0304,0.07926 0,0.169756 0,0.254633 0,0.210489 -0.0351,0.423923 0,0.631465 0.0375,0.221669 0.17021,0.418973 0.21483,0.639317 0.0428,0.211277 0,1.108301 0,1.37496 0,0.0703 -0.0424,0.154817 0,0.210903 0.032,0.04239 0.10625,0 0.15937,0 0.20356,0 0.40868,0.02512 0.61068,0 0.37555,-0.0467 0.73813,-0.178353 1.11483,-0.21456 0.37076,-0.03564 0.74708,-0.04007 1.11738,0 0.29619,0.03205 0.57369,0.165979 0.86758,0.214779 0.46747,0.07762 0.9527,-0.0939 1.42184,0 0.58843,0.117784 1.15976,0.31223 1.72791,0.505416 2.37186,0.806484 1.29867,0.781199 2.26955,0.781199 0.0627,0 -0.12521,0 -0.18783,0 -0.48442,0 -0.96884,0 -1.45326,0 -0.3592,0 -1.98148,0.04028 -2.25524,0 -2.99284,-0.44038 -1.10205,-0.425812 -2.03871,-0.425812 -1.57115,0 -0.23405,0.146097 -1.25262,-0.270171 -0.0714,-0.02921 -0.16119,0.03168 -0.23158,0 -0.0317,-0.01424 0.0253,-0.08034 0,-0.104202 -0.0267,-0.02524 -0.0833,0.02505 -0.11019,0 -0.025,-0.02334 0.0131,-0.0711 0,-0.102711 -0.0584,-0.140238 -0.16162,-0.260283 -0.21092,-0.403968 -0.0357,-0.104039 0,-0.428635 0,-0.556777 0,-0.420501 0,-0.841 0,-1.2615 0,-0.354052 0.0491,-0.711525 0,-1.062156 -0.0438,-0.313239 -0.22008,-0.596571 -0.27582,-0.907916 -0.0371,-0.207604 0,-0.421808 0,-0.632712 0,-0.492111 0,-0.984222 0,-1.476333 0,-0.21774 -0.0422,-1.132904 0,-1.227929 0.0105,-0.02345 0.0514,0 0.077,0 0.20339,0 0.4109,0.04072 0.61016,0 0.15402,-0.03148 0.27266,-0.161193 0.42179,-0.210904 0.0667,-0.02223 0.14062,0 0.21093,0 0.13321,0 0.26642,0 0.39963,0 5.99709,0 -1.45343,-0.127206 6.86164,0.626767 0.71572,0.0649 2.36371,-0.454755 3.17234,0.289918 0.0473,0.04354 -0.12853,0 -0.19281,0 -0.119,0 -0.23801,0 -0.357,0"
           id="path1962" />
        <path
           style="fill:none;stroke:#00ff00;stroke-width:2.11667;stroke-linecap:butt;stroke-linejoin:miter;stroke-dasharray:none;stroke-opacity:1"
           d="m 239.7462,49.3405 c 1.59184,-1.337692 0.37873,-0.561394 1.99492,-1.139004 1.41848,-0.506948 0.46888,-0.421808 1.61538,-0.421808 0.0703,0 0.16208,-0.05059 0.2109,0 0.10619,0.110041 0.10995,0.287488 0.19139,0.416916 0.33251,0.528476 0.80995,0.975354 1.04784,1.552641 0.0865,0.209969 0.7001,3.130361 0.79,3.680154 0.89495,5.472116 0.43462,2.641345 0.92629,7.574255 0.0578,0.579463 0.16525,1.153461 0.21649,1.733538 0.021,0.238177 0,0.478206 0,0.717311 0,0.0703 0.0497,0.161194 0,0.210904 -0.10656,0.106562 -0.26697,0.141237 -0.40723,0.196345 -0.92277,0.362564 -0.98668,0.248729 -2.26429,0.433961 -1.90592,0.276329 -0.79681,0.216801 -2.5344,0.216801 -0.0703,0 -0.14062,0 -0.21091,0 -0.0674,0 -0.15458,-0.04767 -0.20226,0 -0.0477,0.04767 0.0603,0.172208 0,0.202268 -0.12117,0.06035 -0.27976,-0.0486 -0.4061,0 -0.25176,0.09683 -0.43697,0.329901 -0.69055,0.421807 -0.14835,0.05376 -0.32922,-0.06422 -0.47335,0 -0.0642,0.02861 0,0.140604 0,0.210904"
           id="path1964" />
        <path
           style="fill:none;stroke:#00ff00;stroke-width:2.11667;stroke-linecap:butt;stroke-linejoin:miter;stroke-dasharray:none;stroke-opacity:1"
           d="m 239.76919,67.380191 c 0,0.758355 0,1.516708 0,2.275062 0,0.285075 0,0.570153 0,0.855228 0,0.131648 0.0386,0.26908 0,0.394944 -0.0922,0.300631 -0.32371,0.549297 -0.39997,0.854352 -0.0341,0.136405 0,0.281206 0,0.421813 0,0.306235 0.0465,0.972981 0,1.252255 -0.25786,1.547413 -0.16301,0.200745 -0.49203,1.783481 -0.0286,0.13766 0,0.281206 0,0.421813"
           id="path1966" />
      </g>
    </g>
  </g>
</svg>
