<?xml version="1.0" encoding="UTF-8" standalone="no"?>
<!-- Created with Inkscape (http://www.inkscape.org/) -->

<svg
   width="960"
   height="540"
   viewBox="0 0 253.99999 142.875"
   version="1.1"
   id="svg5"
   inkscape:version="1.1 (1:1.1+202105261517+ce6663b3b7)"
   sodipodi:docname="game-background.svg"
   xmlns:inkscape="http://www.inkscape.org/namespaces/inkscape"
   xmlns:sodipodi="http://sodipodi.sourceforge.net/DTD/sodipodi-0.dtd"
   xmlns="http://www.w3.org/2000/svg"
   xmlns:svg="http://www.w3.org/2000/svg">
  <sodipodi:namedview
     id="namedview7"
     pagecolor="#ffffff"
     bordercolor="#666666"
     borderopacity="1.0"
     inkscape:pageshadow="2"
     inkscape:pageopacity="0.0"
     inkscape:pagecheckerboard="0"
     inkscape:document-units="mm"
     showgrid="false"
     units="px"
     width="960px"
     inkscape:zoom="1.5037598"
     inkscape:cx="372.0674"
     inkscape:cy="296.25742"
     inkscape:window-width="1848"
     inkscape:window-height="1016"
     inkscape:window-x="72"
     inkscape:window-y="27"
     inkscape:window-maximized="1"
     inkscape:current-layer="layer1" />
  <defs
     id="defs2" />
  <g
     inkscape:label="Layer 1"
     inkscape:groupmode="layer"
     id="layer1">
    <rect
       style="fill:#6c5d53;stroke:#ff0000;stroke-width:0.265389"
       id="rect52"
       width="258.11633"
       height="31.620966"
       x="-3.1568501"
       y="112.87088" />
    <path
       style="fill:#00ff00;stroke:#000000;stroke-width:0.264583px;stroke-linecap:butt;stroke-linejoin:miter;stroke-opacity:1"
       d="M -3.1568501,112.87088 -2.3843599,-4.7901013 257.58815,-4.6443513 254.95948,112.87088"
       id="path51645" />
    <rect
       style="fill:#000080;stroke:#ff0000;stroke-width:0.264583"
       id="rect827"
       width="16.642891"
       height="16.642891"
       x="35.677036"
       y="30.27549" />
    <rect
       style="fill:#000080;stroke:#ff0000;stroke-width:0.264583"
       id="rect827-3"
       width="16.642891"
       height="16.642891"
       x="56.34906"
       y="30.180191" />
    <rect
       style="fill:#000080;stroke:#ff0000;stroke-width:0.264583"
       id="rect827-3-6"
       width="16.642891"
       height="16.642891"
       x="56.253712"
       y="51.264137" />
    <rect
       style="fill:#000080;stroke:#ff0000;stroke-width:0.264583"
       id="rect827-3-6-7"
       width="16.642891"
       height="16.642891"
       x="35.551434"
       y="51.063549" />
    <text
       xml:space="preserve"
       style="font-style:normal;font-weight:normal;font-size:10.5833px;line-height:1.25;font-family:sans-serif;fill:#000000;fill-opacity:1;stroke:none;stroke-width:0.264583"
       x="39.180702"
       y="42.297886"
       id="text6052"><tspan
         sodipodi:role="line"
         id="tspan6050"
         style="stroke-width:0.264583"
         x="39.180702"
         y="42.297886">W</tspan></text>
    <text
       xml:space="preserve"
       style="font-style:normal;font-weight:normal;font-size:10.5833px;line-height:1.25;font-family:sans-serif;fill:#000000;fill-opacity:1;stroke:none;stroke-width:0.264583"
       x="61.827358"
       y="42.610661"
       id="text8300"><tspan
         sodipodi:role="line"
         id="tspan8298"
         style="stroke-width:0.264583"
         x="61.827358"
         y="42.610661">S</tspan></text>
    <text
       xml:space="preserve"
       style="font-style:normal;font-weight:normal;font-size:10.5833px;line-height:1.25;font-family:sans-serif;fill:#000000;fill-opacity:1;stroke:none;stroke-width:0.264583"
       x="39.958328"
       y="63.575264"
       id="text15974"><tspan
         sodipodi:role="line"
         id="tspan15972"
         style="stroke-width:0.264583"
         x="39.958328"
         y="63.575264">D</tspan></text>
    <text
       xml:space="preserve"
       style="font-style:normal;font-weight:normal;font-size:10.5833px;line-height:1.25;font-family:sans-serif;fill:#000000;fill-opacity:1;stroke:none;stroke-width:0.264583"
       x="60.870007"
       y="63.714401"
       id="text20796"><tspan
         sodipodi:role="line"
         id="tspan20794"
         style="stroke-width:0.264583"
         x="60.870007"
         y="63.714401">E</tspan></text>
    <path
       style="fill:#000080;stroke:#ff0000;stroke-width:0.264583"
       id="path26930"
       d="m 36.451077,25.194348 c 0.716473,-0.356439 1.471586,-0.620283 2.247182,-0.81233 0.500481,-0.112206 1.013542,-0.129692 1.524207,-0.137519 0.60412,-0.02375 1.204833,0.03699 1.806413,0.08198 0.803106,0.05973 1.608183,0.08251 2.413199,0.0944 0.712062,0.0084 1.424196,0.0074 2.136296,0.0071 0.440875,0.03633 0.897731,-0.05373 1.335675,0.01485 0.235431,0.06704 0.475313,0.06878 0.717333,0.05173 0.705173,-0.05228 0.631243,-1.04954 -0.07393,-0.997263 v 0 c -0.181562,0.01445 -0.345392,0.0058 -0.523909,-0.0473 -0.483026,-0.05016 -0.970614,-0.009 -1.45554,-0.02202 -0.707064,2.64e-4 -1.414158,0.0013 -2.121183,-0.007 -0.785055,-0.01155 -1.570177,-0.03354 -2.353378,-0.09173 -0.631537,-0.04722 -1.262489,-0.108755 -1.896658,-0.08464 -0.586814,0.0094 -1.175917,0.03427 -1.750176,0.167033 -0.843585,0.211141 -1.666124,0.496387 -2.445803,0.884829 -0.634887,0.311321 -0.194612,1.209185 0.440272,0.897864 z" />
    <path
       style="fill:#000080;stroke:#ff0000;stroke-width:0.264583"
       id="path26932"
       d="m 45.799927,19.907305 c 0.806183,0.707605 1.596126,1.434703 2.326532,2.220799 0.343172,0.431294 0.644922,0.905856 0.819737,1.431074 0.100145,0.364428 0.286084,0.691624 0.435864,1.03447 0.01079,0.02474 -0.02681,-0.04686 -0.04021,-0.07029 -0.246396,-0.163543 0.176411,-0.24902 0.116332,-0.359844 -0.01937,-0.03571 -0.617035,0.511503 -0.650996,0.545871 -0.282959,0.380448 -0.609868,0.675679 -1.034299,0.885246 -0.628724,0.172233 -1.227701,0.417151 -1.812822,0.702181 -0.430323,0.186913 -0.71452,0.525807 -0.982112,0.892848 -0.149206,0.21205 -0.30127,0.42228 -0.450911,0.635045 -0.405767,0.579096 0.413197,1.15294 0.818968,0.573844 v 0 c 0.145483,-0.208603 0.291872,-0.415647 0.440957,-0.621099 0.172334,-0.237852 0.324628,-0.465021 0.611431,-0.581824 0.591116,-0.288626 1.200901,-0.513114 1.828009,-0.70975 0.511349,-0.265442 0.950454,-0.607295 1.293738,-1.075285 0.02792,-0.02856 0.198369,-0.205434 0.243938,-0.243834 0.150746,-0.127033 0.367194,-0.206262 0.471916,-0.382744 0.06506,-0.109646 0.06663,-0.246133 0.09994,-0.3692 -0.02082,-0.09148 -0.03367,-0.185152 -0.0625,-0.274432 -0.01384,-0.04284 -0.121676,-0.22732 -0.141777,-0.270929 -0.09559,-0.207368 -0.152908,-0.429609 -0.241326,-0.639826 -0.234426,-0.651593 -0.584875,-1.252055 -1.031759,-1.782705 -0.762394,-0.818354 -1.583637,-1.578527 -2.425904,-2.313979 -0.547557,-0.447417 -1.1803,0.326946 -0.632743,0.774363 z" />
    <path
       style="fill:#000080;stroke:#ff0000;stroke-width:0.264583"
       id="path26934"
       d="m 63.12844,20.302808 c -0.602271,0.532897 -1.219595,1.050895 -1.848697,1.552343 -0.64049,0.48012 -1.31931,0.895221 -2.041602,1.238012 -0.578353,0.296364 -1.183018,0.53669 -1.768853,0.816745 -0.4567,0.202119 -0.905926,0.449429 -0.774433,1.051003 0.02606,0.119261 0.124733,0.209887 0.1871,0.314831 0.419971,0.483483 0.960028,0.846075 1.488557,1.200874 0.395192,0.259011 0.77534,0.54271 1.13897,0.844282 0.306914,0.255982 0.666517,0.435909 1.01645,0.624428 0.05567,0.02807 0.111339,0.05614 0.16701,0.08421 0.631717,0.317701 1.081013,-0.57568 0.449297,-0.893382 v 0 c -0.04735,-0.02373 -0.09471,-0.04748 -0.142068,-0.07123 -0.292769,-0.157686 -0.596508,-0.304199 -0.854977,-0.515959 -0.391102,-0.320314 -0.79442,-0.627661 -1.218489,-0.903408 -0.433675,-0.289228 -0.874823,-0.586443 -1.238742,-0.961726 -0.10224,0.104325 0.09116,-0.101255 -0.09685,0.279837 -0.01617,0.03275 -0.0553,0.04836 -0.08675,0.06693 -0.01714,0.01012 0.02638,-0.03059 0.04321,-0.04122 0.08043,-0.05076 0.282191,-0.143386 0.354428,-0.177943 0.583731,-0.281496 1.189278,-0.517409 1.765585,-0.815184 0.790806,-0.376727 1.535629,-0.83109 2.235711,-1.359325 0.646277,-0.515795 1.280903,-1.047987 1.899748,-1.595945 0.521973,-0.477018 -0.152633,-1.215197 -0.674605,-0.738179 z" />
    <path
       style="fill:#000080;stroke:#ff0000;stroke-width:0.264583"
       id="path26936"
       d="m 57.710606,25.019787 c 0.853012,0.166222 1.720237,0.248721 2.582987,0.348737 1.042908,0.121075 2.09015,0.148876 3.13816,0.10766 0.94579,-0.0516 1.892352,-0.08378 2.839288,-0.103762 0.711581,-0.03249 1.422821,0.02046 2.128576,0.108952 0.578268,0.08692 1.162672,0.126174 1.735402,0.245624 0.386845,0.111345 0.756036,0.129188 1.145905,0.03198 0.330179,-0.158175 0.178758,-0.0788 0.456361,-0.234093 0.616821,-0.345736 0.127876,-1.218052 -0.488944,-0.872315 v 0 c -0.193681,0.108802 -0.115814,0.05781 -0.239205,0.14405 -0.220914,0.09035 -0.447498,-0.0091 -0.670978,-0.04878 -0.599604,-0.123822 -1.209881,-0.171145 -1.815457,-0.25887 -0.753726,-0.09257 -1.512938,-0.150782 -2.272776,-0.116332 -0.953103,0.02015 -1.905841,0.05237 -2.857794,0.104323 -0.996373,0.03985 -1.991865,0.01311 -2.983465,-0.101802 -0.823217,-0.09529 -1.650373,-0.175071 -2.465237,-0.327899 -0.687676,-0.164631 -0.920499,0.807889 -0.232823,0.97252 z" />
    <text
       xml:space="preserve"
       style="font-style:normal;font-weight:normal;font-size:5.29167px;line-height:1.25;font-family:sans-serif;fill:#000000;fill-opacity:1;stroke:none;stroke-width:0.264583"
       x="38.865158"
       y="73.146118"
       id="text31120"><tspan
         sodipodi:role="line"
         id="tspan31118"
         style="font-size:5.29167px;stroke-width:0.264583"
         x="38.865158"
         y="73.146118">Aim</tspan></text>
    <text
       xml:space="preserve"
       style="font-style:normal;font-weight:normal;font-size:5.29167px;line-height:1.25;font-family:sans-serif;fill:#000000;fill-opacity:1;stroke:none;stroke-width:0.264583"
       x="56.827026"
       y="73.897461"
       id="text32378"><tspan
         sodipodi:role="line"
         id="tspan32376"
         style="font-size:5.29167px;stroke-width:0.264583"
         x="56.827026"
         y="73.897461">Shoot</tspan></text>
  </g>
</svg>
