<?xml version="1.0" encoding="UTF-8" standalone="no"?>
<!-- Created with Inkscape (http://www.inkscape.org/) -->

<svg
   width="210mm"
   height="297mm"
   viewBox="0 0 210 297"
   version="1.1"
   id="svg5"
   inkscape:version="1.1 (1:1.1+202105261517+ce6663b3b7)"
   sodipodi:docname="player.svg"
   xmlns:inkscape="http://www.inkscape.org/namespaces/inkscape"
   xmlns:sodipodi="http://sodipodi.sourceforge.net/DTD/sodipodi-0.dtd"
   xmlns="http://www.w3.org/2000/svg"
   xmlns:svg="http://www.w3.org/2000/svg">
  <sodipodi:namedview
     id="namedview7"
     pagecolor="#ffffff"
     bordercolor="#666666"
     borderopacity="1.0"
     inkscape:pageshadow="2"
     inkscape:pageopacity="0.0"
     inkscape:pagecheckerboard="0"
     inkscape:document-units="mm"
     showgrid="false"
     inkscape:zoom="0.75187991"
     inkscape:cx="132.99996"
     inkscape:cy="668.32481"
     inkscape:window-width="1848"
     inkscape:window-height="1016"
     inkscape:window-x="72"
     inkscape:window-y="27"
     inkscape:window-maximized="1"
     inkscape:current-layer="layer1" />
  <defs
     id="defs2" />
  <g
     inkscape:label="Layer 1"
     inkscape:groupmode="layer"
     id="layer1">
    <path
       style="fill:#ffff00;stroke:#000000;stroke-width:0.264583px;stroke-linecap:butt;stroke-linejoin:miter;stroke-opacity:1"
       d="m 51.696241,120.04128 v 48.55869 h 48.565669 v -49.12736 z"
       id="path150" />
    <ellipse
       style="fill:#ffccaa;stroke-width:0.263861;image-rendering:auto"
       id="path248"
       cx="75.504471"
       cy="97.760498"
       rx="27.451132"
       ry="27.4895" />
    <path
       style="fill:#ffff00;stroke:#000000;stroke-width:0.264583px;stroke-linecap:butt;stroke-linejoin:miter;stroke-opacity:1"
       d="m 100.25686,129.41177 18.28541,0.0207 v 13.35052 H 99.727344 Z"
       id="path432" />
    <path
       style="fill:#000080;stroke:#000000;stroke-width:0.264583px;stroke-linecap:butt;stroke-linejoin:miter;stroke-opacity:1"
       d="m 51.696241,168.59997 v 30.03067 h 24.517127 v -30.23515 z"
       id="path541" />
    <path
       style="fill:#000080;stroke:#000000;stroke-width:0.264583px;stroke-linecap:butt;stroke-linejoin:miter;stroke-opacity:1"
       d="m 76.213368,168.59997 v 30.03067 h 24.517122 v -30.23515 z"
       id="path541-3" />
    <path
       style="fill:#241c1c;stroke-width:0.264583"
       id="path827"
       d="m 74.988541,170.70449 c -0.308507,3.05728 -0.920972,6.0714 -1.437484,9.09765 -0.370634,1.80373 -0.765524,3.59855 -0.981231,5.42876 -0.198422,1.5907 -0.146669,2.91434 0.353189,4.4392 0.633879,1.77671 1.610813,3.39406 2.279373,5.15633 0.415255,1.16458 0.653536,2.3772 0.626141,3.61377 -0.04622,0.67107 -0.0057,0.33593 -0.122526,1.0053 0,0 3.539221,-1.73569 3.539221,-1.73569 v 0 c 0.09595,-0.71085 0.06493,-0.35831 0.09543,-1.0574 -0.01696,-1.27979 -0.267274,-2.52805 -0.728054,-3.72466 -0.683418,-1.74706 -1.657405,-3.35901 -2.260012,-5.13884 -0.430625,-1.43314 -0.476234,-2.80962 -0.27395,-4.29357 0.220105,-1.81496 0.61826,-3.59473 0.943957,-5.39222 0.469098,-3.04774 1.018844,-6.08223 1.49457,-9.12894 0,0 -3.528623,1.73031 -3.528623,1.73031 z" />
    <path
       style="fill:#241c1c;stroke-width:0.264583"
       id="path862"
       d="m 75.31288,171.00493 c 0.479031,1.13627 1.109956,2.33123 1.187887,3.58828 0.01572,0.2535 -0.01923,0.50762 -0.02886,0.76142 -0.126267,1.47201 -0.87824,2.78361 -1.500381,4.096 -0.453954,1.01757 -0.774263,2.0974 -1.051647,3.17608 -0.229775,0.98672 -0.190355,1.97274 -0.0067,2.96 0.386818,1.35768 0.606568,2.7485 0.734076,4.15173 0.05391,1.55274 0.166158,3.09906 0.285255,4.64799 0.125606,1.39827 0.445177,2.76605 0.613301,4.15794 0.105175,0.98652 0.136734,1.97833 0.154178,2.96957 0,0 3.505394,-1.79575 3.505394,-1.79575 v 0 c -0.02612,-1.00128 -0.06423,-2.00257 -0.183725,-2.998 -0.168499,-1.3852 -0.504552,-2.74294 -0.617844,-4.13637 -0.120745,-1.55134 -0.208288,-3.10261 -0.282104,-4.65676 -0.136329,-1.41475 -0.378449,-2.81038 -0.727519,-4.1892 -0.147596,-0.94368 -0.162084,-1.88296 0.09102,-2.81387 0.282924,-1.05377 0.586488,-2.11106 1.056396,-3.09875 0.633291,-1.35446 1.362004,-2.71479 1.419323,-4.24148 -0.0013,-0.27547 0.02103,-0.55208 -0.004,-0.82642 -0.118546,-1.30084 -0.767326,-2.50933 -1.206177,-3.71759 0,0 -3.437911,1.96518 -3.437911,1.96518 z" />
    <path
       style="fill:#241c1c;stroke-width:0.264583"
       id="path864"
       d="m 161.10828,122.78491 c -3.01336,0.0689 -6.01536,0.38313 -9.02319,0.57311 -4.03736,0.29959 -8.08503,0.17596 -12.12095,-0.0659 -2.418,-0.17219 -4.83655,-0.33133 -7.24557,-0.60492 -1.61677,-0.15744 -3.2136,-0.4595 -4.82383,-0.66409 -3.30674,-0.37182 -2.9991,0.11056 -6.69952,2.21248 -0.85036,0.69818 -1.31924,1.61391 -1.61798,2.65045 -0.33507,1.07074 -0.3812,2.20604 -0.44344,3.31881 0.0626,1.64959 0.33129,3.2807 0.47964,4.92389 0.22858,2.19431 -0.0305,4.38237 -0.3195,6.55551 -0.2407,1.88231 -0.57811,3.74787 -0.77028,5.63668 -0.086,1.31844 -0.16411,2.63222 -0.30728,3.94641 -0.10143,0.82425 -0.25529,1.43727 0.43083,2.01121 1.27256,0.44528 2.68287,0.38622 4.01859,0.41422 1.43406,0.0211 2.86827,0.0105 4.30241,0.007 2.64392,-0.0706 3.13915,-0.34903 5.84903,-2.49457 0.19343,-0.15315 0.0937,-0.48446 0.14052,-0.72669 0.21867,-1.80306 0.23943,-3.62261 0.25108,-5.43657 -0.0881,-1.49182 -0.32735,-2.97234 -0.58301,-4.44353 -0.2171,-1.40769 -0.44864,-2.81412 -0.62572,-4.22759 -0.17739,-1.28043 -0.14132,-2.57449 0.0357,-3.85208 0.0398,-0.15456 0.10712,-0.54382 0.2502,-0.67931 0.0776,-0.0735 0.38152,-0.19192 0.29078,-0.13537 -0.98692,0.61513 -2.02999,1.14315 -2.98116,1.81223 -0.15063,0.10595 0.36038,-0.0809 0.54377,-0.0977 0.24685,-0.0226 0.49557,-0.0135 0.74336,-0.0202 1.23419,0.0182 2.4647,0.12139 3.69667,0.18885 1.91141,0.0507 3.82529,0.0174 5.73767,0.0238 1.62382,0.0154 3.24758,0.0177 4.87144,0.0154 1.67483,0.0453 3.34399,-0.087 5.013,-0.20305 1.43257,-0.0936 2.86826,-0.11974 4.3034,-0.13773 1.00389,0.005 2.02185,0.0124 2.99006,-0.28076 1.22331,-0.74284 2.49733,-1.40799 3.66994,-2.22853 0.3836,-0.26842 0.0598,-2.902 0.0258,-3.31608 -0.13495,-1.33063 -0.33456,-2.65188 -0.53483,-3.97376 0,0 -3.4415,1.82014 -3.4415,1.82014 v 0 c 0.20449,1.31268 0.4023,2.62583 0.51398,3.95051 0.0499,0.73804 0.17407,1.53918 0.0826,2.2801 -0.0189,0.1532 -0.0527,0.30695 -0.11286,0.44911 -0.0451,0.10655 -0.30156,0.33637 -0.1978,0.28521 1.05946,-0.52236 2.0669,-1.14419 3.10035,-1.71628 -0.8785,0.48004 -1.94264,0.38908 -2.9157,0.41423 -1.4451,0.0155 -2.88984,0.0603 -4.33322,0.13287 -1.66395,0.10597 -3.32503,0.29005 -4.99531,0.22222 -1.63795,-10e-4 -3.27579,0.003 -4.91371,0.016 -1.88544,0.002 -3.77136,0.003 -5.65599,-0.0603 -1.24527,-0.0511 -2.48879,-0.13647 -3.7342,-0.18461 -0.0762,-0.002 -1.27062,-0.0463 -1.34239,-0.0117 -2.31813,1.11731 -3.8659,1.11866 -4.20761,3.18268 -0.1305,1.30827 -0.16841,2.62243 0.0274,3.92753 0.18037,1.41791 0.40633,2.82989 0.63843,4.24012 0.24339,1.45288 0.48115,2.91275 0.5484,4.38624 0.006,1.78213 0.0236,3.58281 -0.30518,5.34082 -0.0792,0.19376 -0.43366,0.65478 -0.23767,0.58127 1.10255,-0.41348 2.08979,-1.08666 3.11759,-1.66131 0.11284,-0.0631 -0.24207,0.0927 -0.36758,0.12376 -0.58384,0.1443 -1.19141,0.13855 -1.78637,0.19094 -1.43224,0.003 -2.86452,0.007 -4.29674,-0.002 -1.28281,-0.0184 -2.57906,-0.0173 -3.84486,-0.24897 -0.57627,-0.28947 -0.26824,-1.11836 -0.25775,-1.62745 0.12691,-1.31199 0.2109,-2.62488 0.29195,-3.94023 0.18275,-1.87768 0.51036,-3.73439 0.73746,-5.60662 0.28749,-2.20255 0.52416,-4.41943 0.30029,-6.64185 -0.14585,-1.62959 -0.40882,-3.25193 -0.41853,-4.89046 0.0647,-1.09311 0.14279,-2.19824 0.50368,-3.24126 0.3251,-0.97109 0.84391,-1.80449 1.71602,-2.38113 -0.97393,0.54127 -1.94786,1.08254 -2.92179,1.62381 0.14629,-0.0548 0.28687,-0.12828 0.43886,-0.1643 0.74992,-0.17771 1.54814,-0.0105 2.30193,0.0191 1.62551,0.18123 3.23526,0.48155 4.86448,0.63586 2.43739,0.2988 4.88687,0.43992 7.33854,0.56769 4.03663,0.20878 8.08902,0.40957 12.12666,0.11785 2.96246,-0.19194 5.92565,-0.50112 8.89464,-0.5098 0,0 3.19581,-2.32189 3.19581,-2.32189 z" />
    <path
       style="fill:#241c1c;stroke-width:1.33"
       d="m 461.21894,568.96128 c -0.47985,-1.25046 0.28706,-12.17308 1.70424,-24.27249 1.67238,-14.27824 2.57669,-30.7236 2.57669,-46.85853 0,-16.87334 0.4886,-25.35186 1.5209,-26.3919 1.12255,-1.13096 3.90937,-1.17052 10.64,-0.15105 21.89854,3.31693 48.53899,4.5249 81.93657,3.71529 31.94367,-0.77436 34.25505,-0.67457 34.35972,1.48353 0.0617,1.27255 0.53365,5.67799 1.04872,9.78985 l 0.93649,7.47612 -9.89438,0.83638 c -5.44191,0.46001 -27.11096,0.83638 -48.15344,0.83638 -57.445,0 -56.76725,-0.5946 -50.28441,44.11541 1.80311,12.43539 2.49768,21.71956 1.9154,25.60249 l -0.91356,6.09208 h -13.26025 c -11.28204,0 -13.3904,-0.33918 -14.13269,-2.27356 z"
       id="path903"
       transform="scale(0.26458333)"
       inkscape:export-filename="/home/yue/projects/github-repositories/wars/inkscape/player.png"
       inkscape:export-xdpi="953.51587"
       inkscape:export-ydpi="953.51587" />
  </g>
</svg>
