<?xml version="1.0" encoding="UTF-8" standalone="no"?>
<!-- Created with Inkscape (http://www.inkscape.org/) -->

<svg
   width="960"
   height="540"
   viewBox="0 0 253.99999 142.875"
   version="1.1"
   id="svg5"
   inkscape:version="1.1 (1:1.1+202105261517+ce6663b3b7)"
   sodipodi:docname="scene0-background.svg"
   xmlns:inkscape="http://www.inkscape.org/namespaces/inkscape"
   xmlns:sodipodi="http://sodipodi.sourceforge.net/DTD/sodipodi-0.dtd"
   xmlns="http://www.w3.org/2000/svg"
   xmlns:svg="http://www.w3.org/2000/svg">
  <sodipodi:namedview
     id="namedview7"
     pagecolor="#ffffff"
     bordercolor="#666666"
     borderopacity="1.0"
     inkscape:pageshadow="2"
     inkscape:pageopacity="0.0"
     inkscape:pagecheckerboard="0"
     inkscape:document-units="mm"
     showgrid="false"
     units="px"
     width="960px"
     inkscape:zoom="1.5037598"
     inkscape:cx="546.96235"
     inkscape:cy="312.21741"
     inkscape:window-width="1848"
     inkscape:window-height="1016"
     inkscape:window-x="72"
     inkscape:window-y="27"
     inkscape:window-maximized="1"
     inkscape:current-layer="layer1"
     inkscape:snap-bbox="false" />
  <defs
     id="defs2">
    <inkscape:path-effect
       effect="spiro"
       id="path-effect22200"
       is_visible="true"
       lpeversion="1" />
    <inkscape:path-effect
       effect="spiro"
       id="path-effect22163"
       is_visible="true"
       lpeversion="1" />
  </defs>
  <g
     inkscape:label="Layer 1"
     inkscape:groupmode="layer"
     id="layer1">
    <path
       style="fill:#00ff00;stroke:#00fc00;stroke-width:0.264583px;stroke-linecap:butt;stroke-linejoin:miter;stroke-opacity:1"
       d="M 0.00269549,0.00384851 0.00416136,142.8698 253.98877,142.8798 254.04217,0.06097685 Z"
       id="path172" />
    <text
       xml:space="preserve"
       style="font-style:normal;font-variant:normal;font-weight:normal;font-stretch:normal;font-size:23.2854px;line-height:1.25;font-family:Georgia;-inkscape-font-specification:Georgia;fill:#000000;fill-opacity:1;stroke:none;stroke-width:0.582137"
       x="7.7279401"
       y="22.068405"
       id="text5443"
       transform="scale(0.96736749,1.0337333)"><tspan
         sodipodi:role="line"
         style="font-style:normal;font-variant:normal;font-weight:normal;font-stretch:normal;font-family:Georgia;-inkscape-font-specification:Georgia;stroke-width:0.582137"
         x="7.7279401"
         y="22.068405"
         id="tspan5445">@#Wars</tspan></text>
    <text
       xml:space="preserve"
       style="font-style:normal;font-variant:normal;font-weight:normal;font-stretch:normal;font-size:10.5833px;line-height:1.25;font-family:Georgia;-inkscape-font-specification:Georgia;fill:#000000;fill-opacity:1;stroke:none;stroke-width:0.264583"
       x="103.5277"
       y="20.913975"
       id="text8415"><tspan
         sodipodi:role="line"
         id="tspan8413"
         style="font-style:normal;font-variant:normal;font-weight:normal;font-stretch:normal;font-family:Georgia;-inkscape-font-specification:Georgia;stroke-width:0.264583"
         x="103.5277"
         y="20.913975">by Hanzhao I.A.B.C.C.C</tspan></text>
    <rect
       style="fill:#000000;stroke:#00fc00;stroke-width:0.264583"
       id="rect20518"
       width="4.3557134"
       height="25.652252"
       x="191.20616"
       y="111.94421" />
    <rect
       style="fill:#000000;stroke:#00fc00;stroke-width:0.264583"
       id="rect20518-3"
       width="4.3557134"
       height="25.652252"
       x="196.65759"
       y="112.15398" />
    <rect
       style="fill:#ff0000;stroke:#ff0000;stroke-width:0.264583;stroke-opacity:1"
       id="rect20018"
       width="14.430217"
       height="59.268883"
       x="188.67867"
       y="54.067776" />
    <ellipse
       style="fill:#ffe6d5;stroke:#00fc00;stroke-width:0.264583"
       id="path19863"
       ry="12.483879"
       rx="12.697972"
       cy="42.823326"
       cx="195.74286" />
    <path
       style="color:#000000;fill:#000000;stroke-width:2.05071;-inkscape-stroke:none"
       d="m 195.58658,55.485835 -0.0247,56.458385 1.09572,0.20973 0.0327,-56.454852 z"
       id="path20155" />
    <path
       style="fill:#000000;fill-opacity:1;stroke:#000000;stroke-width:0.264583;stroke-opacity:1"
       id="path23353"
       d="m 163.76575,64.96732 c 0.005,-0.586348 0.0762,-1.171054 0.1194,-1.755976 0.0372,-0.534837 0.0504,-1.070864 0.0561,-1.606828 0.0333,-0.492154 -0.0914,-0.971333 -0.14621,-1.455801 7.9e-4,-0.108087 -0.0625,-0.512156 -0.0113,-0.570693 0.0497,-0.45698 0.10061,-0.913662 0.13183,-1.372319 0.0242,-0.431612 0.0261,-0.864013 0.0273,-1.296168 2.6e-4,-0.381481 -2.7e-4,-0.762963 -7.9e-4,-1.144442 -0.0404,-0.383762 0.0639,-0.796411 -0.0202,-1.176197 -0.0854,-0.385752 -0.21109,-0.761468 -0.31663,-1.142201 -0.24405,-0.333684 -0.45062,-0.69832 -0.73215,-1.001048 -0.65807,-0.70761 -1.66226,-0.952852 -2.562,-1.170919 -0.73239,-0.165079 -1.46739,-0.316357 -2.20364,-0.463203 -0.88801,-0.185968 -1.79505,-0.235392 -2.69958,-0.222573 -0.7215,0.02045 -1.4364,0.100602 -2.14959,0.205367 -0.26994,0.04315 -0.54336,0.04698 -0.81599,0.0523 -0.54009,0.0057 -1.08024,0.004 -1.62036,0.0036 -0.52497,-7.94e-4 -1.04993,-7.94e-4 -1.5749,-0.0011 -0.51293,-1.01e-4 -1.02585,-1.3e-4 -1.53878,-1.33e-4 -0.42206,0 -0.84411,6e-6 -1.26617,8e-6 -0.16569,0 -0.21778,0 -0.37808,0 -0.0514,0 -0.20538,-0.0024 -0.15407,0 0.48126,0.02143 0.035,-0.02804 -0.0296,-0.0387 -0.41347,-0.05621 -0.20016,-0.03095 -0.64008,-0.07441 -4.22452,-0.391805 -4.77862,5.582563 -0.5541,5.974369 v 0 c 0.15213,0.01148 0.0796,0.0046 0.21769,0.02005 0.50924,0.084 1.02132,0.140592 1.53826,0.118692 0.42203,-2e-6 0.84406,-8e-6 1.26609,-8e-6 0.51246,3e-6 1.02492,3.2e-5 1.53739,1.33e-4 0.52376,1.24e-4 1.04752,2.64e-4 1.57129,0.0011 0.58371,5.29e-4 1.16746,0.0026 1.75113,-0.0049 0.52345,-0.01148 1.04732,-0.03427 1.56544,-0.115157 0.48016,-0.071 0.95932,-0.132109 1.44596,-0.14365 0.44967,-0.04132 0.91231,0.03669 1.35493,0.109228 0.65666,0.130857 1.31243,0.264136 1.96575,0.410731 0.0957,0.02312 0.19145,0.04623 0.28718,0.06934 0.0252,0.0041 0.0507,0.0067 0.0756,0.01228 0.0296,0.0066 0.11286,0.04114 0.0877,0.02429 -0.10563,-0.07065 -0.22878,-0.113334 -0.33187,-0.187637 -0.50055,-0.360754 -0.47726,-0.483174 -0.87525,-1.094404 -0.37185,-1.626367 -0.14482,-0.844629 -0.20136,-0.160253 2.7e-4,0.374883 0.001,0.749769 8e-4,1.124651 -8e-4,0.309129 -0.001,0.618408 -0.015,0.927291 -0.0243,0.448387 -0.0975,0.892805 -0.12972,1.340609 -0.0281,0.576784 -0.0324,1.153367 0.0429,1.727494 0.0325,0.252037 0.0274,0.228396 0.0657,0.468696 0.008,0.05048 0.0162,0.10097 0.0255,0.151223 0.002,0.01087 0.008,0.04309 0.009,0.03205 0.004,-0.05695 -0.0495,-0.197064 0.002,-0.171304 0.0511,0.0258 -5.3e-4,0.114398 -0.001,0.171598 -0.004,0.409667 -0.0129,0.819412 -0.0402,1.228296 -0.0537,0.731475 -0.13972,1.462432 -0.13561,2.196653 0,4.242647 6.00001,4.242647 6.00001,0 z" />
    <path
       style="fill:#f80000;stroke:#ff0000;stroke-width:0.264583;stroke-opacity:1;fill-opacity:1"
       id="path22373"
       d="m 188.74008,60.51039 c -0.76463,-0.06863 -1.53048,-0.101642 -2.29358,-0.183338 -1.04577,-0.108614 -2.09759,-0.136387 -3.1481,-0.156175 -1.1252,-0.02103 -2.2289,0.197932 -3.32644,0.414679 -0.59702,0.08006 -1.19334,0.166835 -1.7938,0.218921 -0.86054,0.111892 -1.72532,0.17295 -2.59204,0.206854 -0.98076,0.0286 -1.96205,0.02922 -2.94315,0.03046 -1.10428,-0.02728 -2.20591,0.05141 -3.30773,0.110429 -0.92445,0.04874 -1.85035,0.05553 -2.77584,0.06135 -0.95859,0.02712 -1.91367,-0.0054 -2.86985,-0.06721 -0.73292,-0.05495 -1.46739,-0.08178 -2.20206,-0.09755 -0.24391,-0.0046 -0.48785,-0.0061 -0.73179,-0.0074 -5.65677,-0.03027 -5.69957,7.969615 -0.0428,7.999881 v 0 c 0.20182,0.0011 0.40363,0.0021 0.60542,0.0057 0.61939,0.01286 1.23858,0.03533 1.85642,0.08276 1.14433,0.0736 2.28867,0.111112 3.43558,0.08363 1.05153,-0.0068 2.10347,-0.01643 3.15376,-0.07269 0.96252,-0.05177 1.92437,-0.126997 2.88915,-0.09894 1.08534,-0.0013 2.17091,-0.0026 3.25582,-0.03697 0.9985,-0.04131 1.99629,-0.103939 2.98788,-0.23269 0.87862,-0.08116 1.75425,-0.196998 2.62509,-0.33817 0.53882,-0.106423 1.07802,-0.24072 1.62819,-0.264448 0.81573,0.01482 1.63281,0.03181 2.44522,0.112152 0.7774,0.08313 1.5562,0.129682 2.33564,0.187721 5.62785,0.572056 6.43686,-7.386928 0.80901,-7.958981 z" />
    <circle
       id="path23314"
       style="fill:#f80000;stroke:#ff0000;stroke-width:0.264583"
       cx="166.70146"
       cy="65.947327"
       r="0.035154436" />
    <circle
       id="path23316"
       style="fill:#f80000;stroke:#ff0000;stroke-width:0.264583"
       cx="166.70146"
       cy="65.947327"
       r="0.035154436" />
  </g>
</svg>
