<?xml version="1.0" encoding="UTF-8" standalone="no"?>
<!-- Created with Inkscape (http://www.inkscape.org/) -->

<svg
   width="960"
   height="540"
   viewBox="0 0 253.99999 142.875"
   version="1.1"
   id="svg5"
   inkscape:version="1.1 (1:1.1+202105261517+ce6663b3b7)"
   sodipodi:docname="scene0-background.svg"
   xmlns:inkscape="http://www.inkscape.org/namespaces/inkscape"
   xmlns:sodipodi="http://sodipodi.sourceforge.net/DTD/sodipodi-0.dtd"
   xmlns="http://www.w3.org/2000/svg"
   xmlns:svg="http://www.w3.org/2000/svg">
  <sodipodi:namedview
     id="namedview7"
     pagecolor="#ffffff"
     bordercolor="#666666"
     borderopacity="1.0"
     inkscape:pageshadow="2"
     inkscape:pageopacity="0.0"
     inkscape:pagecheckerboard="0"
     inkscape:document-units="mm"
     showgrid="false"
     units="px"
     width="960px"
     inkscape:zoom="1.0633188"
     inkscape:cx="457.52978"
     inkscape:cy="219.59549"
     inkscape:window-width="1848"
     inkscape:window-height="1016"
     inkscape:window-x="72"
     inkscape:window-y="27"
     inkscape:window-maximized="1"
     inkscape:current-layer="layer1"
     inkscape:snap-bbox="false" />
  <defs
     id="defs2">
    <inkscape:path-effect
       effect="spiro"
       id="path-effect22200"
       is_visible="true"
       lpeversion="1" />
    <inkscape:path-effect
       effect="spiro"
       id="path-effect22163"
       is_visible="true"
       lpeversion="1" />
  </defs>
  <g
     inkscape:label="Layer 1"
     inkscape:groupmode="layer"
     id="layer1">
    <path
       style="fill:#00ff00;stroke:#00fc00;stroke-width:0.264583px;stroke-linecap:butt;stroke-linejoin:miter;stroke-opacity:1"
       d="M 0.00269549,0.00384851 0.00416136,142.8698 253.98877,142.8798 254.04217,0.06097685 Z"
       id="path172" />
    <text
       xml:space="preserve"
       style="font-style:normal;font-variant:normal;font-weight:normal;font-stretch:normal;font-size:23.2854px;line-height:1.25;font-family:Georgia;-inkscape-font-specification:Georgia;fill:#000000;fill-opacity:1;stroke:none;stroke-width:0.582137"
       x="7.7279401"
       y="22.068405"
       id="text5443"
       transform="scale(0.96736749,1.0337333)"><tspan
         sodipodi:role="line"
         style="font-style:normal;font-variant:normal;font-weight:normal;font-stretch:normal;font-family:Georgia;-inkscape-font-specification:Georgia;stroke-width:0.582137"
         x="7.7279401"
         y="22.068405"
         id="tspan5445">@#Wars</tspan></text>
    <text
       xml:space="preserve"
       style="font-style:normal;font-variant:normal;font-weight:normal;font-stretch:normal;font-size:10.5833px;line-height:1.25;font-family:Georgia;-inkscape-font-specification:Georgia;fill:#000000;fill-opacity:1;stroke:none;stroke-width:0.264583"
       x="103.5277"
       y="20.913975"
       id="text8415"><tspan
         sodipodi:role="line"
         id="tspan8413"
         style="font-style:normal;font-variant:normal;font-weight:normal;font-stretch:normal;font-family:Georgia;-inkscape-font-specification:Georgia;stroke-width:0.264583"
         x="103.5277"
         y="20.913975">by Hanzhao I.A.B.C.C.C</tspan></text>
    <rect
       style="fill:#000000;stroke:#00fc00;stroke-width:0.221542"
       id="rect20518"
       width="3.5110831"
       height="22.311762"
       x="201.18533"
       y="112.32979" />
    <rect
       style="fill:#000000;stroke:#00fc00;stroke-width:0.221542"
       id="rect20518-3"
       width="3.5110831"
       height="22.311762"
       x="205.57965"
       y="112.51224" />
    <rect
       style="fill:#000000;stroke:#00fc00;stroke-width:0.203149"
       id="rect20518-5"
       width="5.0953355"
       height="12.927691"
       x="17.338163"
       y="121.8541" />
    <rect
       style="fill:#000000;stroke:#00fc00;stroke-width:0.203149"
       id="rect20518-3-6"
       width="5.0953355"
       height="12.927691"
       x="23.715261"
       y="121.95981" />
    <rect
       style="fill:#ff0000;stroke:#ff0000;stroke-width:0.221542;stroke-opacity:1"
       id="rect20018"
       width="11.632008"
       height="51.550762"
       x="199.14795"
       y="61.990154" />
    <ellipse
       style="fill:#ffe6d5;stroke:#00fc00;stroke-width:0.221542"
       id="path19863"
       ry="10.858202"
       rx="10.235668"
       cy="52.20998"
       cx="204.8423" />
    <path
       style="color:#000000;fill:#000000;stroke-width:1.71711;-inkscape-stroke:none"
       d="m 204.71633,63.223549 -0.0199,49.106251 0.88324,0.18242 0.0264,-49.10318 z"
       id="path20155" />
    <rect
       style="fill:#ff0000;stroke:#ff0000;stroke-width:0.12587;stroke-opacity:1"
       id="rect20018-6"
       width="11.632008"
       height="16.640594"
       x="17.315626"
       y="105.19096" />
    <ellipse
       style="fill:#ffe6d5;stroke:#00fc00;stroke-width:0.221542"
       id="path19863-3"
       ry="10.858202"
       rx="10.235668"
       cy="95.80172"
       cx="23.283392" />
    <path
       style="fill:#000000;fill-opacity:1;stroke:#000000;stroke-width:0.221542;stroke-opacity:1"
       id="path23353"
       d="m 179.06598,71.470335 c 0.004,-0.509993 0.0614,-1.018557 0.0962,-1.527309 0.03,-0.46519 0.0406,-0.931414 0.0452,-1.397584 0.0268,-0.428064 -0.0737,-0.844844 -0.11786,-1.266223 6.4e-4,-0.09401 -0.0504,-0.445462 -0.009,-0.496376 0.0401,-0.397472 0.0811,-0.794683 0.10627,-1.193613 0.0195,-0.375407 0.021,-0.7515 0.022,-1.127378 2.1e-4,-0.331804 -2.2e-4,-0.663609 -6.3e-4,-0.995411 -0.0326,-0.333787 0.0515,-0.6927 -0.0163,-1.02303 -0.0688,-0.335518 -0.17015,-0.662308 -0.25523,-0.993461 -0.19672,-0.290231 -0.36324,-0.607383 -0.59018,-0.870689 -0.53046,-0.615464 -1.33992,-0.82877 -2.06519,-1.01844 -0.59037,-0.143582 -1.18284,-0.27516 -1.77632,-0.402884 -0.71582,-0.16175 -1.44697,-0.204738 -2.1761,-0.193589 -0.58159,0.01779 -1.15786,0.0875 -1.73276,0.178624 -0.21759,0.03753 -0.43799,0.04086 -0.65776,0.04549 -0.43535,0.005 -0.87076,0.0035 -1.30615,0.0031 -0.42317,-6.91e-4 -0.84633,-6.91e-4 -1.2695,-9.57e-4 -0.41347,-8.8e-5 -0.82693,-1.13e-4 -1.24039,-1.16e-4 -0.34022,0 -0.68043,5e-6 -1.02065,7e-6 -0.13356,0 -0.17555,0 -0.30476,0 -0.0414,0 -0.16555,-0.0021 -0.12419,0 0.38793,0.01864 0.0282,-0.02439 -0.0239,-0.03366 -0.3333,-0.04889 -0.16135,-0.02692 -0.51596,-0.06472 -3.40533,-0.340784 -3.85199,4.855589 -0.44666,5.196374 v 0 c 0.12263,0.01 0.0642,0.004 0.17548,0.01744 0.41049,0.07306 0.82327,0.122283 1.23997,0.103235 0.34019,-10e-7 0.68039,-7e-6 1.02058,-7e-6 0.41309,3e-6 0.82617,2.8e-5 1.23927,1.16e-4 0.42219,1.08e-4 0.84439,2.3e-4 1.26659,9.57e-4 0.47053,4.6e-4 0.94108,0.0023 1.41157,-0.0043 0.42194,-0.01 0.84423,-0.02981 1.26188,-0.100161 0.38705,-0.06175 0.77329,-0.114906 1.16557,-0.124944 0.36247,-0.03594 0.7354,0.03191 1.09219,0.095 0.52932,0.113817 1.05793,0.22974 1.58456,0.357245 0.0772,0.02011 0.15433,0.04021 0.2315,0.06031 0.0203,0.0036 0.0409,0.0058 0.0609,0.01068 0.0239,0.0057 0.091,0.03578 0.0707,0.02113 -0.0851,-0.06145 -0.18442,-0.09857 -0.26752,-0.163202 -0.40348,-0.313776 -0.38471,-0.420254 -0.70552,-0.951889 -0.29975,-1.414578 -0.11674,-0.734639 -0.16232,-0.139384 2.2e-4,0.326065 8.1e-4,0.652132 6.5e-4,0.978196 -6.5e-4,0.268874 -8.1e-4,0.537878 -0.0121,0.806538 -0.0196,0.389997 -0.0786,0.776542 -0.10457,1.166032 -0.0226,0.501674 -0.0261,1.003173 0.0346,1.502536 0.0262,0.219216 0.0221,0.198653 0.053,0.407661 0.006,0.04391 0.0131,0.08782 0.0206,0.131531 0.002,0.0095 0.006,0.03748 0.007,0.02788 0.003,-0.04953 -0.0399,-0.171402 0.002,-0.148997 0.0412,0.02244 -4.2e-4,0.0995 -8e-4,0.149253 -0.003,0.356319 -0.0104,0.712706 -0.0324,1.068344 -0.0433,0.636221 -0.11262,1.271991 -0.10931,1.9106 0,3.690161 4.83653,3.690161 4.83653,0 z" />
    <path
       style="fill:#000000;fill-opacity:1;stroke:#000000;stroke-width:0.221542;stroke-opacity:1"
       id="path23353-2"
       d="m 40.599453,112.76608 c -0.004,-0.50999 -0.0614,-1.01855 -0.0962,-1.52731 -0.03,-0.46519 -0.0406,-0.93141 -0.0452,-1.39758 -0.0268,-0.42806 0.0737,-0.84484 0.11786,-1.26622 -6.4e-4,-0.094 0.0504,-0.44546 0.009,-0.49638 -0.0401,-0.39747 -0.0811,-0.79468 -0.10627,-1.19361 -0.0195,-0.37541 -0.021,-0.7515 -0.022,-1.12738 -2.1e-4,-0.3318 2.2e-4,-0.66361 6.3e-4,-0.99541 0.0326,-0.33379 -0.0515,-0.6927 0.0163,-1.02303 0.0688,-0.33552 0.17015,-0.66231 0.25523,-0.99346 0.19672,-0.29023 0.36324,-0.60738 0.59018,-0.87069 0.53046,-0.61546 1.33992,-0.82877 2.06519,-1.01844 0.59037,-0.14358 1.18284,-0.27516 1.77632,-0.40288 0.71582,-0.16175 1.44697,-0.20474 2.1761,-0.19359 0.58159,0.0178 1.15786,0.0875 1.73276,0.17862 0.21759,0.0375 0.43799,0.0409 0.65776,0.0455 0.43535,0.005 0.87076,0.004 1.30615,0.003 0.42317,-6.9e-4 0.84633,-6.9e-4 1.2695,-9.6e-4 0.41347,-8e-5 0.82693,-1.1e-4 1.24039,-1.1e-4 0.34022,0 0.68043,0 1.02065,1e-5 0.13356,0 0.17555,0 0.30476,0 0.0414,0 0.16555,-0.002 0.12419,0 -0.38793,0.0186 -0.0282,-0.0244 0.0239,-0.0337 0.3333,-0.0489 0.16135,-0.0269 0.51596,-0.0647 3.40533,-0.34079 3.85199,4.85558 0.44666,5.19637 v 0 c -0.12263,0.01 -0.0642,0.004 -0.17548,0.0174 -0.41049,0.0731 -0.82327,0.12228 -1.23997,0.10323 -0.34019,0 -0.68039,0 -1.02058,0 -0.41309,0 -0.82617,2e-5 -1.23927,1.1e-4 -0.42219,1.1e-4 -0.84439,2.3e-4 -1.26659,9.6e-4 -0.47053,4.6e-4 -0.94108,0.002 -1.41157,-0.004 -0.42194,-0.01 -0.84423,-0.0298 -1.26188,-0.10016 -0.38705,-0.0618 -0.77329,-0.11491 -1.16557,-0.12495 -0.36247,-0.0359 -0.7354,0.0319 -1.09219,0.095 -0.52932,0.11382 -1.05793,0.22974 -1.58456,0.35725 -0.0772,0.0201 -0.15433,0.0402 -0.2315,0.0603 -0.0203,0.004 -0.0409,0.006 -0.0609,0.0107 -0.0239,0.006 -0.091,0.0358 -0.0707,0.0211 0.0851,-0.0614 0.18442,-0.0986 0.26752,-0.1632 0.40348,-0.31378 0.38471,-0.42026 0.70552,-0.95189 0.29975,-1.41458 0.11674,-0.73464 0.16232,-0.13939 -2.2e-4,0.32607 -8.1e-4,0.65214 -6.5e-4,0.9782 6.5e-4,0.26887 8.1e-4,0.53788 0.0121,0.80654 0.0196,0.39 0.0786,0.77654 0.10457,1.16603 0.0226,0.50167 0.0261,1.00317 -0.0346,1.50254 -0.0262,0.21921 -0.0221,0.19865 -0.053,0.40766 -0.006,0.0439 -0.0131,0.0878 -0.0206,0.13153 -0.002,0.01 -0.006,0.0375 -0.007,0.0279 -0.003,-0.0495 0.0399,-0.1714 -0.002,-0.149 -0.0412,0.0224 4.2e-4,0.0995 8e-4,0.14925 0.003,0.35632 0.0104,0.71271 0.0324,1.06835 0.0433,0.63622 0.11262,1.27199 0.10931,1.9106 0,3.69016 -4.83653,3.69016 -4.83653,0 z"
       inkscape:transform-center-x="0.44464412"
       inkscape:transform-center-y="-0.44572104" />
    <path
       style="fill:#f80000;fill-opacity:1;stroke:#ff0000;stroke-width:0.221542;stroke-opacity:1"
       id="path22373"
       d="m 199.19746,67.593796 c -0.61636,-0.05969 -1.2337,-0.08841 -1.84883,-0.159464 -0.84298,-0.09447 -1.69084,-0.118626 -2.53764,-0.135837 -0.90701,-0.01829 -1.79669,0.172157 -2.6814,0.360678 -0.48125,0.06963 -0.96194,0.14511 -1.44596,0.190413 -0.69367,0.09732 -1.39076,0.150428 -2.08941,0.179917 -0.79058,0.02488 -1.58158,0.02541 -2.37243,0.02649 -0.89015,-0.02373 -1.77816,0.04472 -2.66632,0.09605 -0.74519,0.04239 -1.49154,0.0483 -2.23757,0.05336 -0.7727,0.02359 -1.54258,-0.0047 -2.31335,-0.05846 -0.59079,-0.04779 -1.18284,-0.07113 -1.77505,-0.08485 -0.19661,-0.004 -0.39325,-0.0053 -0.58988,-0.0064 -4.55985,-0.02633 -4.59435,6.931795 -0.0345,6.95812 v 0 c 0.16268,9.56e-4 0.32536,0.0018 0.48802,0.005 0.49928,0.01119 0.9984,0.03073 1.49643,0.07198 0.92243,0.06402 1.84487,0.09664 2.76938,0.07274 0.84762,-0.0059 1.69558,-0.01429 2.5422,-0.06322 0.77588,-0.04503 1.55121,-0.11046 2.32891,-0.08606 0.87488,-0.0011 1.74994,-0.0023 2.62447,-0.03216 0.80488,-0.03593 1.60919,-0.0904 2.40849,-0.202389 0.70825,-0.07059 1.41408,-0.171344 2.11605,-0.294132 0.43434,-0.09257 0.86898,-0.209373 1.31247,-0.230011 0.65755,0.01289 1.31618,0.02767 1.97106,0.09755 0.62665,0.07231 1.25443,0.112794 1.88272,0.163275 4.53654,0.497562 5.18867,-6.424986 0.65214,-6.922545 z" />
    <circle
       id="path23314"
       style="fill:#f80000;stroke:#ff0000;stroke-width:0.264583"
       cx="166.70146"
       cy="65.947327"
       r="0.035154436" />
    <circle
       id="path23316"
       style="fill:#f80000;stroke:#ff0000;stroke-width:0.264583"
       cx="166.70146"
       cy="65.947327"
       r="0.035154436" />
    <path
       style="fill:#ff0000;stroke:#ff0000;stroke-width:0.264583;stroke-opacity:1"
       id="path332"
       d="m 27.856384,113.57525 c 0.846733,0.08 1.696795,0.1174 2.546549,0.1471 0.588065,0.0187 1.176451,0.0216 1.76476,0.0226 0.667293,1.1e-4 1.334585,-5.3e-4 2.001877,-7.9e-4 0.845288,-2.7e-4 1.690579,-2.7e-4 2.535867,-2.7e-4 0.826852,0.01 1.651606,0.003 2.476508,-0.0571 0.466072,-0.0347 0.930712,-0.0909 1.397852,-0.11009 0.04886,-0.001 0.09772,-0.003 0.146574,-0.004 3.533926,-0.10639 3.383468,-5.10412 -0.150458,-4.99773 v 0 c -0.07444,0.002 -0.148889,0.005 -0.223335,0.007 -0.515493,0.0247 -1.029091,0.0739 -1.543142,0.11883 -0.700773,0.054 -1.401599,0.0475 -2.104231,0.0432 -0.845868,4e-5 -1.691738,9e-5 -2.537609,2.7e-4 -0.663728,2.6e-4 -1.327456,7.9e-4 -1.991185,7.9e-4 -0.533302,-7.9e-4 -1.066675,-0.003 -1.599766,-0.0196 -0.740428,-0.0256 -1.481182,-0.0571 -2.219124,-0.12495 -3.517725,-0.35435 -4.018862,4.62046 -0.501137,4.97482 z" />
    <path
       style="fill:#ffff00;stroke:#ffff00;stroke-width:0.264583;stroke-opacity:1"
       id="path1520"
       d="m 60.23025,104.14694 c 0.269952,-0.28969 0.520446,-0.59705 0.784921,-0.89143 0.04153,-0.0462 0.18152,-0.16941 0.132639,-0.13103 -0.148749,0.11679 -0.243893,0.35954 -0.432877,0.36677 -0.925653,0.0354 -1.845493,-0.16282 -2.76824,-0.24424 -1.88998,-0.0276 -0.498407,-1.22387 -0.839693,-1.78642 -0.03798,-0.0626 -0.05303,0.13653 -0.07772,0.20547 -0.101907,0.28458 -0.194704,0.55285 -0.335971,0.81946 0.02842,-0.0899 0.05102,-0.19418 0.133586,-0.25604 0.269748,-0.20208 0.531204,-0.43199 0.844687,-0.5558 0.257183,-0.10158 0.547484,-0.0811 0.823143,-0.10294 0.181761,-0.0144 0.277773,0.0819 0.128111,-0.0356 0.727374,0.39206 0.538213,0.21169 1.075767,1.55717 0.07006,0.17537 -0.131075,0.47158 0.0327,0.56559 0.137901,0.0792 0.186648,-0.25748 0.280681,-0.3857 0.180496,-0.24612 0.362463,-0.49116 0.54316,-0.73714 -1.044125,1.23306 -0.647562,0.94374 -4.091546,-0.3709 -0.288443,-0.11011 -0.136641,-0.60696 -0.266491,-0.88707 -0.04419,-0.0953 -0.0054,0.21036 0.0013,0.31522 0.04442,0.68281 0.05223,0.60586 0.189987,1.26526 0.09545,0.42674 0.296781,0.81496 0.447508,1.22143 -0.01937,-0.0309 -0.04586,-0.0675 -0.05308,-0.10417 -0.01884,-0.0958 -0.02946,-0.19298 -0.0442,-0.28947 5.3e-4,-0.069 0.04359,-0.15258 0.0013,-0.20713 -0.03346,-0.0431 -0.02604,0.10603 -0.03847,0.15918 -0.08665,0.37051 -0.05211,0.21564 -0.129027,0.68434 -0.504941,3.49928 4.443791,4.21338 4.948735,0.7141 v 0 c -0.04222,-0.21246 0.387152,-1.18726 0.216905,-1.27457 -0.0127,-0.23096 -0.01116,-0.46314 -0.03807,-0.69288 -0.05481,-0.46789 -0.235437,-0.93313 -0.443582,-1.35214 -0.239816,-0.52467 0.335658,-1.45563 -0.327827,-1.802247 -3.328109,-1.738664 -3.131423,-1.65636 -4.403077,-0.339109 -0.687789,0.936276 -1.868564,2.352756 -1.826934,3.537086 0.0653,1.85776 0.530878,1.98904 1.58687,2.84321 0.411768,0.20479 0.920694,0.49605 1.384935,0.54713 0.447947,0.0493 0.916072,0.10017 1.351875,-0.0145 1.066385,-0.28073 1.635919,-0.92843 2.15868,-1.79759 0.237204,-0.49653 0.449392,-0.9922 0.615918,-1.51765 0.07179,-0.22651 0.161793,-0.4493 0.20311,-0.68329 0.06643,-0.37625 0.209675,-0.76891 0.118833,-1.14002 -0.160319,-0.65492 -0.564994,-1.22445 -0.84749,-1.83668 -0.984512,-0.136401 -1.960338,-0.446918 -2.953536,-0.409202 -0.315129,0.01196 -0.52538,0.350761 -0.769347,0.550585 -0.414216,0.339264 -0.687732,0.838167 -1.080506,1.199807 -2.328658,2.66032 1.4336,5.95354 3.762259,3.29322 z" />
  </g>
</svg>
